<?xml version="1.0" encoding="UTF-8" standalone="no"?>
<!-- Created with Inkscape (http://www.inkscape.org/) -->

<svg
   xmlns:dc="http://purl.org/dc/elements/1.1/"
   xmlns:cc="http://creativecommons.org/ns#"
   xmlns:rdf="http://www.w3.org/1999/02/22-rdf-syntax-ns#"
   xmlns:svg="http://www.w3.org/2000/svg"
   xmlns="http://www.w3.org/2000/svg"
   xmlns:sodipodi="http://sodipodi.sourceforge.net/DTD/sodipodi-0.dtd"
   xmlns:inkscape="http://www.inkscape.org/namespaces/inkscape"
   version="1.1"
   id="svg2"
   width="511.89355"
   height="512.07239"
   viewBox="0 0 511.89355 512.07239"
   sodipodi:docname="icon.svg"
   inkscape:export-filename="/var/www/html/cepaonline/src/images/icon.png"
   inkscape:export-xdpi="218"
   inkscape:export-ydpi="218"
   inkscape:version="0.92.4 (5da689c313, 2019-01-14)">
  <metadata
     id="metadata8">
    <rdf:RDF>
      <cc:Work
         rdf:about="">
        <dc:format>image/svg+xml</dc:format>
        <dc:type
           rdf:resource="http://purl.org/dc/dcmitype/StillImage" />
        <dc:title />
      </cc:Work>
    </rdf:RDF>
  </metadata>
  <defs
     id="defs6" />
  <sodipodi:namedview
     pagecolor="#ffffff"
     bordercolor="#666666"
     borderopacity="1"
     objecttolerance="10"
     gridtolerance="10"
     guidetolerance="10"
     inkscape:pageopacity="0"
     inkscape:pageshadow="2"
     inkscape:window-width="1920"
     inkscape:window-height="1031"
     id="namedview4"
     showgrid="false"
     fit-margin-top="0"
     fit-margin-left="0"
     fit-margin-right="0"
     fit-margin-bottom="0"
     inkscape:zoom="0.2229944"
     inkscape:cx="-2045.7307"
     inkscape:cy="-234.45836"
     inkscape:window-x="0"
     inkscape:window-y="25"
     inkscape:window-maximized="1"
     inkscape:current-layer="svg2" />
  <path
     style="fill:#003333;fill-opacity:1"
     d="M 237.89355,511.37303 C 159.3761,505.26685 88.785677,464.53357 45.010537,400.0724 23.133797,367.85775 9.6911172,334.79991 3.5247671,298.05176 -8.9086031,223.95561 11.833977,149.40865 61.276897,90.495889 85.680017,61.418802 119.52754,36.419971 155.24355,21.094736 176.4355,12.001568 194.44311,6.8489495 219.1048,2.8217503 232.21367,0.6811017 234.28521,0.6473173 372.14355,0.3258641 L 511.89355,0 v 46.506057 46.506056 l -138.75,0.334756 c -137.10056,0.330777 -138.86293,0.359964 -148.25,2.455199 -55.33028,12.349962 -99.45829,49.431782 -119.90092,100.755612 -7.903493,19.84274 -11.093453,36.95637 -11.093453,59.51472 0,22.55835 3.18996,39.67198 11.093453,59.51472 20.44263,51.32383 64.57064,88.40565 119.90092,100.75562 9.38707,2.09523 11.14944,2.12442 148.25,2.4552 l 138.75,0.33475 v 46.46986 46.46985 l -134.75,-0.17471 c -74.1125,-0.0961 -136.775,-0.33219 -139.25,-0.52466 z"
     id="path819"
     inkscape:connector-curvature="0"
     inkscape:export-xdpi="218"
     inkscape:export-ydpi="218" />
</svg>
