<?xml version="1.0" encoding="UTF-8" standalone="no"?>
<!-- Created with Inkscape (http://www.inkscape.org/) -->

<svg
   xmlns:dc="http://purl.org/dc/elements/1.1/"
   xmlns:cc="http://creativecommons.org/ns#"
   xmlns:rdf="http://www.w3.org/1999/02/22-rdf-syntax-ns#"
   xmlns:svg="http://www.w3.org/2000/svg"
   xmlns="http://www.w3.org/2000/svg"
   xmlns:sodipodi="http://sodipodi.sourceforge.net/DTD/sodipodi-0.dtd"
   xmlns:inkscape="http://www.inkscape.org/namespaces/inkscape"
   width="126.99929mm"
   height="127.01949mm"
   viewBox="0 0 126.99929 127.01949"
   version="1.1"
   id="svg8"
   inkscape:version="0.92.4 (5da689c313, 2019-01-14)"
   sodipodi:docname="boom-lift.svg">
  <defs
     id="defs2" />
  <sodipodi:namedview
     id="base"
     pagecolor="#ffffff"
     bordercolor="#666666"
     borderopacity="1.0"
     inkscape:pageopacity="0.0"
     inkscape:pageshadow="2"
     inkscape:zoom="0.81883518"
     inkscape:cx="400.1023"
     inkscape:cy="33.760963"
     inkscape:document-units="mm"
     inkscape:current-layer="layer1"
     showgrid="false"
     fit-margin-top="0"
     fit-margin-left="0"
     fit-margin-right="0"
     fit-margin-bottom="0"
     inkscape:window-width="1920"
     inkscape:window-height="1031"
     inkscape:window-x="0"
     inkscape:window-y="25"
     inkscape:window-maximized="1" />
  <metadata
     id="metadata5">
    <rdf:RDF>
      <cc:Work
         rdf:about="">
        <dc:format>image/svg+xml</dc:format>
        <dc:type
           rdf:resource="http://purl.org/dc/dcmitype/StillImage" />
        <dc:title></dc:title>
      </cc:Work>
    </rdf:RDF>
  </metadata>
  <g
     inkscape:label="Capa 1"
     inkscape:groupmode="layer"
     id="layer1"
     transform="translate(-40.895386,-97.98749)">
    <path
       style="fill:#000000;stroke-width:0.26458332"
       d="m 53.931446,224.43553 c -4.61391,-1.46191 -8.29402,-5.93973 -8.73356,-10.62666 l -0.14267,-1.52135 h -1.50463 c -1.23067,0 -1.60937,-0.1115 -2.07992,-0.61237 -0.56836,-0.60499 -0.57528,-0.72543 -0.57528,-10.00804 v -9.39568 l 0.61236,-0.57529 c 0.4805,-0.4514 0.93631,-0.57529 2.11667,-0.57529 h 1.5043 v -1.03046 c 0,-1.24605 0.84965,-4.06898 1.5831,-5.25979 0.50269,-0.81615 0.53357,-1.30806 0.53357,-8.49948 0,-7.57982 -0.005,-7.6413 -0.64039,-8.79101 -1.64787,-2.97927 -1.93867,-7.42178 -0.69625,-10.63629 1.28638,-3.32825 4.55861,-6.46192 7.82173,-7.49053 1.26588,-0.39903 4.7963,-3.10053 25.60155,-19.59047 l 24.133194,-19.12762 7.68618,-0.07 7.68618,-0.07 -0.86007,-4.7625 c -1.05238,-5.82744 -1.07644,-6.47209 -0.26976,-7.22992 l 0.61236,-0.57529 h 15.6769 c 9.71993,0 15.8608,0.0984 16.16085,0.259 1.20364,0.64417 1.16859,1.00693 -1.60253,16.58541 -3.11919,17.53527 -2.75987,15.82678 -3.46721,16.48577 -0.55839,0.52022 -0.89386,0.53649 -11.06318,0.53649 h -10.48732 l -0.55386,-0.59531 c -0.30462,-0.32743 -0.63343,-1.07157 -0.73068,-1.65365 -0.35265,-2.11072 -0.1589,-1.98438 -3.04294,-1.98438 h -2.61207 l -23.080744,18.23618 -23.08074,18.23618 -0.57853,1.59775 c -0.31819,0.87876 -0.77371,1.89564 -1.01227,2.25972 -0.3744,0.57141 -0.43374,1.62245 -0.43374,7.68274 v 7.02077 h 1.05833 1.05834 v -5.77472 c 0,-5.69414 0.009,-5.78274 0.61236,-6.35 0.60936,-0.57246 0.66887,-0.57528 12.12472,-0.57528 h 11.51234 l 0.57529,0.61236 c 0.55415,0.58987 0.57529,0.82319 0.57529,6.35 v 5.73764 h 1.54138 c 1.26908,0 1.643,0.10817 2.11666,0.61236 0.532814,0.56715 0.575294,0.87975 0.575294,4.23333 v 3.62097 h 6.35 6.35 v 2.11667 2.11666 H 78.995376 45.128716 v 6.35 c 0,7.09103 0.1158,7.47399 1.42516,4.71312 0.90402,-1.90619 3.17277,-4.2713 5.0838,-5.29972 3.75519,-2.02086 8.65392,-2.02095 12.36667,-2.1e-4 1.9344,1.05283 4.20281,3.41004 5.09808,5.29765 l 0.76483,1.6126 h 2.77812 2.77813 l 0.7637,-1.61032 c 0.90403,-1.90619 3.17277,-4.2713 5.0838,-5.29972 3.75519,-2.02086 8.65392,-2.02095 12.36667,-2.1e-4 1.9344,1.05283 4.20281,3.41004 5.09808,5.29765 l 0.76483,1.6126 10.914064,0.0133 10.91406,0.0133 v -6.35 -6.35 h -2.11666 -2.11667 v -2.11666 -2.11667 h 2.11667 2.11666 v -16.35804 -16.35805 l 0.61237,-0.57529 c 0.47617,-0.44733 0.93745,-0.57528 2.07403,-0.57528 h 1.46165 l 0.95322,-5.72117 c 0.79358,-4.76311 1.05214,-5.82647 1.54397,-6.35 0.5831,-0.62068 0.65816,-0.62883 5.79018,-0.62883 5.05387,0 5.21512,0.0167 5.76014,0.59685 0.45231,0.48146 0.74255,1.67921 1.50133,6.19555 0.51734,3.07929 0.94061,5.66299 0.94061,5.74156 0,0.0786 0.86321,0.17784 1.91823,0.22059 l 1.91823,0.0777 11.04301,13.22916 11.043,13.22917 0.003,13.64607 0.003,13.64606 -0.61237,0.57529 c -0.47681,0.44791 -0.93732,0.57529 -2.07994,0.57529 h -1.46756 l -0.14267,1.52135 c -0.72226,7.70185 -8.87091,12.97652 -16.4368,10.63965 -4.68292,-1.4464 -8.38082,-5.90476 -8.82485,-10.63965 l -0.14267,-1.52135 h -18.9765 -18.97651 l -0.14267,1.52135 c -0.722264,7.70185 -8.870904,12.97652 -16.436804,10.63965 -4.68292,-1.4464 -8.38082,-5.90476 -8.82484,-10.63965 l -0.14268,-1.52135 h -2.04317 -2.04317 l -0.14267,1.52135 c -0.44682,4.76463 -4.11766,9.18575 -8.83723,10.64348 -2.27383,0.70231 -5.44309,0.69538 -7.69086,-0.0168 z m 6.93736,-4.39911 c 1.86822,-0.6018 4.11625,-2.88494 4.76565,-4.84009 1.09669,-3.30183 0.4056,-6.38147 -1.96374,-8.75081 -3.35097,-3.35097 -8.33304,-3.35097 -11.684,0 -1.07404,1.07404 -1.617,1.88118 -1.97381,2.9342 -0.99315,2.93096 -0.41991,6.12667 1.48774,8.29388 2.47021,2.8063 5.5668,3.58732 9.36816,2.36282 z m -5.15676,-7.7489 v -2.11667 h 2.11667 2.11666 v 2.11667 2.11666 h -2.11666 -2.11667 z m 34.79009,7.7489 c 1.86822,-0.6018 4.11625,-2.88494 4.76565,-4.84009 1.09669,-3.30183 0.4056,-6.38147 -1.96374,-8.75081 -3.35096,-3.35097 -8.33304,-3.35097 -11.684,0 -1.07404,1.07404 -1.617,1.88118 -1.97381,2.9342 -0.99315,2.93096 -0.41991,6.12667 1.48775,8.29388 2.4702,2.8063 5.5668,3.58732 9.36815,2.36282 z m -5.15676,-7.7489 v -2.11667 h 2.11667 2.11667 v 2.11667 2.11666 h -2.11667 -2.11667 z m 68.656764,7.7489 c 1.86822,-0.6018 4.11625,-2.88494 4.76565,-4.84009 1.09669,-3.30183 0.4056,-6.38147 -1.96374,-8.75081 -3.35097,-3.35097 -8.33304,-3.35097 -11.684,0 -1.07404,1.07404 -1.617,1.88118 -1.97381,2.9342 -0.99316,2.93096 -0.41991,6.12667 1.48774,8.29388 2.47021,2.8063 5.5668,3.58732 9.36816,2.36282 z m -5.15676,-7.7489 v -2.11667 h 2.11667 2.11666 v 2.11667 2.11666 h -2.11666 -2.11667 z m -9.15817,-5.87022 c 0.90402,-1.90619 3.17277,-4.2713 5.0838,-5.29972 3.75519,-2.02086 8.65392,-2.02095 12.36667,-2.1e-4 1.9344,1.05283 4.20281,3.41004 5.09807,5.29765 1.16822,2.46309 1.4263,2.18519 1.4263,-1.53584 v -3.175 l -0.72761,-0.006 c -0.90653,-0.007 -2.902,-0.89539 -3.73918,-1.66425 -0.34668,-0.31839 -0.91107,-1.17421 -1.25419,-1.90181 -0.56057,-1.18872 -0.62412,-1.69225 -0.62644,-4.96382 -0.002,-3.16293 0.0712,-3.79778 0.55912,-4.83588 0.69451,-1.4775 2.36626,-2.94455 3.84764,-3.3765 l 1.11825,-0.32606 -9.67194,-11.57126 -9.67194,-11.57126 h -8.96686 -8.96685 v 23.28333 23.28333 l 6.68073,-0.0133 6.68073,-0.0133 0.7637,-1.61031 z m -9.31654,-11.67548 -0.57529,-0.61236 v -13.62902 -13.62901 l 0.61237,-0.57529 c 0.5855,-0.55005 0.83864,-0.57529 5.77133,-0.57529 h 5.15897 l 0.67655,0.72761 c 0.37211,0.40018 3.49001,4.48816 6.92867,9.0844 l 6.25211,8.35681 v 5.15697 c 0,5.04842 -0.0129,5.16908 -0.61237,5.73226 -0.60935,0.57246 -0.66886,0.57528 -12.12471,0.57528 h -11.51234 z m 20.59138,-6.35288 v -2.7319 l -5.88411,-7.85143 -5.88412,-7.85142 h -2.58255 -2.58256 v 10.58333 10.58333 h 8.46667 8.46667 z m 12.7,4.87335 c 0,-4.03135 -0.0216,-4.20293 -0.51204,-4.07467 -1.15656,0.30245 -1.46834,1.05738 -1.5472,3.74632 -0.0822,2.80173 0.17198,3.64114 1.2707,4.19707 0.36093,0.18262 0.68601,0.3338 0.72239,0.33594 0.0364,0.002 0.0662,-1.88995 0.0662,-4.20466 z M 51.481296,190.39325 c 0.003,-0.95249 1.08164,-3.21854 1.88063,-3.95233 1.06759,-0.98047 2.89363,-1.65845 4.46679,-1.65845 1.57316,0 3.3992,0.67798 4.46678,1.65845 0.799,0.73379 1.87725,2.99984 1.88063,3.95233 0.002,0.67011 0.0849,0.7276 1.04429,0.7276 h 1.0417 l -0.14519,-0.99219 c -0.20709,-1.4152 -1.18964,-3.50201 -2.17993,-4.62989 -0.46732,-0.53225 -1.57563,-1.33048 -2.46291,-1.77386 -1.34732,-0.67326 -1.92557,-0.80614 -3.50821,-0.80614 -2.71891,0 -4.2017,0.58606 -5.98177,2.36425 -1.45198,1.45045 -2.00947,2.564 -2.49216,4.97794 -0.17151,0.85771 -0.1692,0.85989 0.90741,0.85989 1.00047,0 1.07955,-0.0532 1.08194,-0.7276 z m 8.28064,0.21557 c -0.20754,-0.79366 -1.0665,-1.42824 -1.93322,-1.42824 -0.86673,0 -1.72568,0.63458 -1.93323,1.42824 -0.12397,0.47405 0.0194,0.51203 1.93323,0.51203 1.9138,0 2.05719,-0.038 1.93322,-0.51203 z m 36.16678,-1.60463 v -2.11667 h -12.99545 -12.99544 l 0.17552,0.59531 c 0.0965,0.32742 0.24602,1.27992 0.33219,2.11667 l 0.15667,1.52135 h 12.66325 12.66326 z m -4.23334,-10.58334 v -4.23333 h -8.46666 -8.46667 v 4.23333 4.23334 h 8.46667 8.46666 z m -33.86666,0.13229 c 2.69179,0 3.23342,0.0804 4.69635,0.69685 l 1.65365,0.69685 v -3.64265 -3.64266 l -1.65365,0.69685 c -1.46293,0.61648 -2.00456,0.69685 -4.69635,0.69685 -2.6918,0 -3.23342,-0.0804 -4.69635,-0.69685 l -1.65365,-0.69685 v 3.64266 3.64265 l 1.65365,-0.69685 c 1.46293,-0.61648 2.00455,-0.69685 4.69635,-0.69685 z m 3.04009,-9.3052 c 1.86387,-0.61665 4.11568,-2.90472 4.77572,-4.85262 1.10139,-3.25041 0.39524,-6.38074 -1.97381,-8.7498 -2.36934,-2.36934 -5.44898,-3.06043 -8.75082,-1.96374 -2.00106,0.66465 -4.2246,2.88408 -4.90699,4.89794 -0.99315,2.93096 -0.41991,6.12667 1.48774,8.29388 2.47014,2.80622 5.63686,3.60882 9.36816,2.37434 z m -5.81822,-2.02515 c -0.7276,-0.35098 -1.58341,-0.9218 -1.9018,-1.26848 -0.97746,-1.06431 -1.65819,-2.8942 -1.66168,-4.46679 -0.0105,-4.718 4.80617,-7.73746 9.13054,-5.72377 4.48976,2.0907 4.80233,8.50066 0.54294,11.13404 -1.79596,1.11036 -4.21517,1.23904 -6.11,0.325 z m 4.21129,-4.4253 c 0.6793,-0.65212 0.6538,-1.98643 -0.0515,-2.69168 -1.19436,-1.19437 -3.32199,-0.32787 -3.32199,1.35291 0,1.86288 2.00046,2.65678 3.37344,1.33877 z m 13.64809,-6.79145 c -0.36381,-0.0316 -1.32166,-0.0912 -2.12857,-0.13229 l -1.46711,-0.0748 0.50849,1.37869 0.50849,1.3787 1.62008,-1.2464 c 1.45551,-1.1198 1.55289,-1.25225 0.95862,-1.30393 z m 64.476524,0.65283 c -0.0765,-0.32742 -0.40513,-2.23242 -0.73018,-4.23333 l -0.59101,-3.63802 h -2.34121 c -1.28767,0 -2.34235,0.0893 -2.34375,0.19844 -10e-4,0.10914 -0.29791,1.92484 -0.65892,4.03489 -0.361,2.11006 -0.65751,3.92576 -0.65891,4.0349 -0.001,0.10914 1.67724,0.19844 3.7303,0.19844 h 3.73285 z m -58.024974,-9.26041 c 0.52866,-2.21919 0.9602,-4.18373 0.95899,-4.36563 -0.002,-0.25137 -1.06909,-0.33073 -4.44881,-0.33073 h -4.4466 l -0.97885,4.16719 c -0.53837,2.29195 -0.97818,4.25649 -0.97736,4.36563 8e-4,0.10914 2.01073,0.19843 4.46647,0.19843 h 4.46498 z m -13.84269,1.11782 c 0.28738,-1.20322 0.49038,-2.21845 0.4511,-2.25608 -0.096,-0.0919 -3.88202,2.88822 -3.88305,3.05649 -8.4e-4,0.13694 2.69294,1.49309 2.83137,1.42542 0.0429,-0.021 0.3132,-1.02262 0.60058,-2.22583 z m 21.74478,-3.39053 c 1.56435,-1.23683 2.84427,-2.28812 2.84427,-2.33621 0,-0.0481 -1.16885,-0.0874 -2.59745,-0.0874 h -2.59746 l -0.45247,1.91823 c -0.24886,1.05503 -0.52751,2.20474 -0.61922,2.55492 -0.21332,0.81449 -0.15871,0.78178 3.42233,-2.0495 z m -5.75304,-7.25229 c 0.0645,-0.1819 0.34655,-1.37711 0.6267,-2.65602 l 0.50936,-2.3253 -1.09802,0.88594 c -0.60391,0.48727 -2.09219,1.68248 -3.30728,2.65602 l -2.20926,1.77009 h 2.68059 c 1.9055,0 2.71451,-0.0956 2.79791,-0.33073 z m 14.50652,-3.83646 c 0.53747,-2.29195 0.97558,-4.25648 0.97359,-4.36562 -0.002,-0.10914 -2.01435,-0.19844 -4.4719,-0.19844 h -4.46826 l -0.82226,3.50573 c -0.45224,1.92815 -0.89719,3.89268 -0.98877,4.36562 l -0.1665,0.8599 h 4.48344 4.48345 z m 8.867764,-2.79398 2.20926,-1.77008 h -2.7562 -2.75619 l -0.47016,2.05052 c -0.25859,1.12779 -0.53839,2.34818 -0.62179,2.71198 -0.14712,0.64174 -0.11679,0.63337 1.01709,-0.28044 0.6428,-0.51804 2.1629,-1.73843 3.37799,-2.71198 z m 37.08834,-5.54039 c 0.17565,-1.05503 0.37203,-2.00753 0.4364,-2.11667 0.0644,-0.10914 -3.68464,-0.19844 -8.3311,-0.19844 h -8.44812 l 0.22409,1.25677 c 0.12325,0.69123 0.29186,1.64373 0.3747,2.11667 l 0.15062,0.85989 h 7.63702 7.63702 z m -43.810664,-0.99219 c 0.32727,-1.17224 0.98712,-4.53941 0.90479,-4.61709 -0.0527,-0.0498 -1.49113,1.01958 -3.19642,2.37632 -1.70528,1.35675 -2.98506,2.50525 -2.84395,2.55223 0.14112,0.047 1.32942,0.0854 2.64067,0.0854 1.89357,0 2.40691,-0.0816 2.49491,-0.39687 z m 13.181204,0.19844 c -6.50985,-8.27456 -6.66158,-8.44878 -6.81639,-7.82696 -1.85503,7.4509 -1.92447,7.86239 -1.34603,7.97655 0.30394,0.06 2.32336,0.12529 4.48761,0.1451 3.11424,0.0285 3.88073,-0.0329 3.67481,-0.29469 z m 9.07815,-5.75469 -0.80693,-4.23333 h -5.25058 c -2.88782,0 -5.2109,0.0958 -5.16239,0.21287 0.0485,0.11708 1.51694,2.02189 3.26319,4.23291 l 3.175,4.02005 2.79432,5.2e-4 2.79432,5.3e-4 -0.80693,-4.23333 z m 23.4909,-4.0349 c 0.39,-2.21919 0.70688,-4.12419 0.70417,-4.23333 -0.003,-0.10914 -4.7674,-0.19844 -10.58824,-0.19844 -5.82083,0 -10.58554,0.0893 -10.58824,0.19844 -0.003,0.10914 0.31418,2.01414 0.70418,4.23333 l 0.70909,4.0349 h 9.17497 9.17498 z m 1.59273,-9.12812 c 0.1184,-0.40498 0.69404,-3.46267 0.69404,-3.68662 0,-0.046 -5.47688,-0.0837 -12.17084,-0.0837 -6.69395,0 -12.17083,0.0377 -12.17083,0.0837 0,0.22395 0.57564,3.28164 0.69404,3.68662 0.1262,0.43166 0.9034,0.46302 11.47679,0.46302 10.5734,0 11.35059,-0.0314 11.4768,-0.46302 z m -21.86981,35.7109 -2.31004,-2.3208 1.52947,-1.51351 1.52947,-1.51351 2.31004,2.3208 2.31005,2.3208 -1.52947,1.51351 -1.52947,1.51351 z m 16.40659,0.79654 -1.51351,-1.52947 2.3208,-2.31005 2.3208,-2.31004 1.51351,1.52947 1.51351,1.52947 -2.3208,2.31004 -2.3208,2.31005 z m -8.39483,-5.35276 v -3.175 h 2.11667 2.11667 v 3.175 3.175 h -2.11667 -2.11667 z"
       id="path826"
       inkscape:connector-curvature="0" />
  </g>
</svg>
