<?xml version="1.0" encoding="UTF-8" standalone="no"?>
<!-- Created with Inkscape (http://www.inkscape.org/) -->

<svg
   xmlns:dc="http://purl.org/dc/elements/1.1/"
   xmlns:cc="http://creativecommons.org/ns#"
   xmlns:rdf="http://www.w3.org/1999/02/22-rdf-syntax-ns#"
   xmlns:svg="http://www.w3.org/2000/svg"
   xmlns="http://www.w3.org/2000/svg"
   xmlns:sodipodi="http://sodipodi.sourceforge.net/DTD/sodipodi-0.dtd"
   xmlns:inkscape="http://www.inkscape.org/namespaces/inkscape"
   width="77.798363mm"
   height="135.46666mm"
   viewBox="0 0 77.798362 135.46666"
   version="1.1"
   id="svg8"
   inkscape:version="0.92.4 (5da689c313, 2019-01-14)"
   sodipodi:docname="drill.svg">
  <defs
     id="defs2" />
  <sodipodi:namedview
     id="base"
     pagecolor="#ffffff"
     bordercolor="#666666"
     borderopacity="1.0"
     inkscape:pageopacity="0.0"
     inkscape:pageshadow="2"
     inkscape:zoom="0.81883518"
     inkscape:cx="337.04784"
     inkscape:cy="51.617745"
     inkscape:document-units="mm"
     inkscape:current-layer="layer1"
     showgrid="false"
     fit-margin-top="0"
     fit-margin-left="0"
     fit-margin-right="0"
     fit-margin-bottom="0"
     inkscape:window-width="1920"
     inkscape:window-height="1031"
     inkscape:window-x="0"
     inkscape:window-y="25"
     inkscape:window-maximized="1" />
  <metadata
     id="metadata5">
    <rdf:RDF>
      <cc:Work
         rdf:about="">
        <dc:format>image/svg+xml</dc:format>
        <dc:type
           rdf:resource="http://purl.org/dc/dcmitype/StillImage" />
        <dc:title></dc:title>
      </cc:Work>
    </rdf:RDF>
  </metadata>
  <g
     inkscape:label="Capa 1"
     inkscape:groupmode="layer"
     id="layer1"
     transform="translate(-57.255424,-94.264929)">
    <path
       style="fill:#000000;stroke-width:0.26458332"
       d="m 68.122544,229.03445 c -0.54713,-0.69557 -0.54837,-0.76209 -0.54837,-29.45391 0,-31.50083 0.0624,-30.21537 -1.54961,-31.90927 -0.40734,-0.42802 -1.47276,-1.40794 -2.36761,-2.17759 -2.91862,-2.51028 -5.10615,-6.18389 -5.97255,-10.02995 -0.37709,-1.67396 -0.42898,-4.59586 -0.42898,-24.15525 v -22.25094 l 0.64943,-0.64943 c 0.63819,-0.63819 0.72669,-0.64943 5.1128,-0.64943 h 4.46336 l 4.08147,-6.00609 c 5.07141,-7.462807 5.09189,-7.487661 6.1711,-7.487661 0.46857,0 1.05093,0.148828 1.29413,0.330729 0.2432,0.181901 2.38748,3.188236 4.76507,6.680722 l 4.3229,6.35 4.47976,0.13593 c 2.46387,0.0748 4.67723,0.23214 4.91856,0.34974 1.01988,0.49696 1.03895,0.97721 0.95319,24.00109 -0.0931,24.98754 0.0208,23.44616 -2.04293,27.63616 -1.21795,2.47274 -2.88977,4.53534 -5.33102,6.57713 -3.02651,2.53128 -2.72976,-0.83768 -2.88157,32.71349 -0.13732,30.34724 -0.12816,30.11506 -1.20492,30.52825 -0.23422,0.0899 -4.45561,0.16342 -9.38085,0.16342 h -8.95499 z m 44.957266,0.10182 c -0.48108,-0.32742 -1.12377,-0.93142 -1.42819,-1.34222 -0.55162,-0.7444 -0.55373,-0.83483 -0.62469,-26.78906 -0.0391,-14.32318 0.0209,-26.04215 0.1334,-26.04215 0.11252,0 5.53214,5.32854 12.04359,11.84119 l 11.839,11.8412 -5.3e-4,14.02182 c -5.3e-4,15.63037 0.0456,15.21452 -1.82465,16.46395 -0.89142,0.59559 -0.97536,0.60059 -10.08107,0.60059 -9.08668,0 -9.19126,-0.006 -10.05686,-0.59532 z m 9.72503,-53.57921 -11.839,-11.84119 v -5.62131 c 0,-3.09171 0.0898,-5.6213 0.19954,-5.6213 0.10974,0 5.52709,5.32853 12.03854,11.84119 l 11.839,11.84119 v 5.62131 c 0,3.09172 -0.0898,5.62131 -0.19954,5.62131 -0.10975,0 -5.52709,-5.32854 -12.03854,-11.8412 z m 0.13339,-22.35587 -11.97239,-11.97488 v -5.48903 c 0,-3.01896 0.0898,-5.48902 0.19954,-5.48902 0.10974,0 5.52953,5.33098 12.04397,11.84663 l 11.84444,11.84663 -0.0716,5.61728 -0.0716,5.61728 z m 0,-22.48958 -11.97239,-11.97488 v -5.48903 c 0,-3.01896 0.0898,-5.48902 0.19954,-5.48902 0.10974,0 5.52953,5.33098 12.04397,11.84663 l 11.84444,11.84663 -0.0716,5.61728 -0.0716,5.61728 z m 1.45394,-20.77138 c -5.63823,-5.63962 -10.25019,-10.372346 -10.24878,-10.517176 0.001,-0.14483 1.63851,-1.32569 3.63802,-2.62412 3.24844,-2.109466 3.79039,-2.372581 5.09068,-2.4715 1.56558,-0.119101 1.70974,-0.04227 9.26041,4.93532 2.96233,1.952836 2.76661,1.147936 2.85404,11.737066 0.0418,5.05685 -0.0184,9.19427 -0.13356,9.19427 -0.11522,0 -4.82258,-4.61423 -10.46081,-10.25386 z"
       id="path877"
       inkscape:connector-curvature="0" />
  </g>
</svg>
