<?xml version="1.0" encoding="UTF-8" standalone="no"?>
<!-- Created with Inkscape (http://www.inkscape.org/) -->

<svg
   xmlns:dc="http://purl.org/dc/elements/1.1/"
   xmlns:cc="http://creativecommons.org/ns#"
   xmlns:rdf="http://www.w3.org/1999/02/22-rdf-syntax-ns#"
   xmlns:svg="http://www.w3.org/2000/svg"
   xmlns="http://www.w3.org/2000/svg"
   xmlns:sodipodi="http://sodipodi.sourceforge.net/DTD/sodipodi-0.dtd"
   xmlns:inkscape="http://www.inkscape.org/namespaces/inkscape"
   width="135.46666mm"
   height="135.46669mm"
   viewBox="0 0 135.46666 135.46669"
   version="1.1"
   id="svg8"
   inkscape:version="0.92.4 (5da689c313, 2019-01-14)"
   sodipodi:docname="drilling-rig.svg">
  <defs
     id="defs2" />
  <sodipodi:namedview
     id="base"
     pagecolor="#ffffff"
     bordercolor="#666666"
     borderopacity="1.0"
     inkscape:pageopacity="0.0"
     inkscape:pageshadow="2"
     inkscape:zoom="0.81883518"
     inkscape:cx="359.78963"
     inkscape:cy="70.695823"
     inkscape:document-units="mm"
     inkscape:current-layer="layer1"
     showgrid="false"
     fit-margin-top="0"
     fit-margin-left="0"
     fit-margin-right="0"
     fit-margin-bottom="0"
     inkscape:window-width="1920"
     inkscape:window-height="1031"
     inkscape:window-x="0"
     inkscape:window-y="25"
     inkscape:window-maximized="1"
     showguides="false" />
  <metadata
     id="metadata5">
    <rdf:RDF>
      <cc:Work
         rdf:about="">
        <dc:format>image/svg+xml</dc:format>
        <dc:type
           rdf:resource="http://purl.org/dc/dcmitype/StillImage" />
        <dc:title></dc:title>
      </cc:Work>
    </rdf:RDF>
  </metadata>
  <g
     inkscape:label="Capa 1"
     inkscape:groupmode="layer"
     id="layer1"
     transform="translate(-51.238326,-99.312647)">
    <path
       style="fill:#000000;stroke-width:0.26458332"
       d="m 51.238326,230.81058 v -3.96875 h 8.06979 8.06979 v -4.23333 -4.23333 h 51.593754 51.59374 v 4.23333 4.23333 h 8.0698 8.06979 v 3.96875 3.96875 H 118.97166 51.238326 Z m 28.84122,-20.57135 c 7.9e-4,-0.10914 5.15823,-17.58156 11.46074,-38.8276 l 11.459104,-38.62917 -2.86178,-0.0748 -2.861784,-0.0748 v -3.96008 -3.96009 h 21.695834 21.69583 v 3.96875 3.96875 h -2.79596 c -2.53926,0 -2.78321,0.0425 -2.65724,0.46302 1.19926,4.00314 22.40081,76.09864 22.52911,76.60981 l 0.17937,0.71467 -9.88441,-0.004 -9.88441,-0.004 -7.54063,-5.26352 -7.54062,-5.26352 -0.0716,5.26768 -0.0716,5.26769 h -3.96327 -3.96327 v -5.31372 c 0,-2.92254 -0.0939,-5.27403 -0.20872,-5.22552 -0.11479,0.0485 -3.55789,2.43968 -7.65132,5.31372 l -7.442624,5.22552 h -9.81117 c -5.39614,0 -9.81043,-0.0893 -9.80953,-0.19844 z m 22.404144,-11.65529 c 5.1199,-3.58932 9.28708,-6.5437 9.26041,-6.56528 -0.58836,-0.47621 -14.324584,-9.95347 -14.546994,-10.03665 -0.21592,-0.0807 -1.49068,3.85564 -3.96708,12.25011 -2.0069,6.803 -3.72155,12.65273 -3.81032,12.99939 -0.14369,0.56114 0.0535,0.47933 1.79684,-0.74562 1.07703,-0.75676 6.14724,-4.31264 11.267144,-7.90195 z m 42.39946,-3.9411 c -2.08009,-7.10186 -3.81412,-12.95616 -3.8534,-13.00958 -0.0685,-0.0932 -13.20203,9.00774 -14.40666,9.98318 -0.58316,0.47222 -0.54083,0.50524 10.63206,8.29507 6.16965,4.30153 11.26085,7.7811 11.31377,7.73238 0.0529,-0.0487 -1.60568,-5.8992 -3.68577,-13.00105 z m -20.22708,-11.61362 5.28753,-3.68009 -5.46816,-0.0715 c -3.00749,-0.0393 -8.00552,-0.0393 -11.10673,0 l -5.63857,0.0715 5.55462,3.87257 c 3.05503,2.12991 5.67367,3.78595 5.81919,3.68009 0.14552,-0.10587 2.64397,-1.84852 5.55212,-3.87257 z M 112.35708,170.8467 c 0,-0.0924 -1.69007,-3.67135 -3.75571,-7.95315 l -3.75572,-7.78509 -2.1777,7.32745 c -1.19774,4.0301 -2.24838,7.60902 -2.33475,7.95315 l -0.15704,0.62569 h 6.09046 c 3.34975,0 6.09046,-0.0756 6.09046,-0.16805 z m 25.39999,-0.0918 c 0,-0.31358 -4.1447,-14.48429 -4.43838,-15.17482 -0.1559,-0.36656 -1.12969,1.42616 -3.96951,7.3078 -2.06962,4.28643 -3.76294,7.86851 -3.76294,7.96019 0,0.0917 2.73844,0.16668 6.08542,0.16668 3.80674,0 6.08541,-0.0973 6.08541,-0.25985 z m -14.54604,-13.78805 c 2.25225,-4.6704 4.13469,-8.59947 4.1832,-8.73125 0.0515,-0.13994 -3.45182,-0.2396 -8.42257,-0.2396 -4.97075,0 -8.47408,0.0997 -8.42257,0.2396 0.34683,0.94223 8.30861,17.2229 8.42257,17.2229 0.0794,0 1.98712,-3.82124 4.23937,-8.49165 z m 5.44078,-17.37137 c -0.3029,-0.96662 -2.00724,-6.80725 -2.00724,-6.87864 0,-0.0411 -3.41539,-0.0432 -7.58977,-0.005 l -7.58977,0.0702 -0.86987,2.91042 c -0.47843,1.60073 -0.94202,3.23784 -1.03021,3.63802 l -0.16033,0.7276 h 9.69614 c 9.1133,0 9.68742,-0.0278 9.55105,-0.46302 z m -23.64364,-26.72291 0.0729,-4.16719 4.96094,-0.072 4.96094,-0.072 v -4.62436 -4.624373 h 3.96875 3.96875 v 4.630203 4.63021 h 5.02708 5.02708 v 4.23333 4.23334 h -14.02967 -14.02963 z"
       id="path928"
       inkscape:connector-curvature="0" />
  </g>
</svg>
