<?xml version="1.0" encoding="UTF-8" standalone="no"?>
<!-- Created with Inkscape (http://www.inkscape.org/) -->

<svg
   xmlns:dc="http://purl.org/dc/elements/1.1/"
   xmlns:cc="http://creativecommons.org/ns#"
   xmlns:rdf="http://www.w3.org/1999/02/22-rdf-syntax-ns#"
   xmlns:svg="http://www.w3.org/2000/svg"
   xmlns="http://www.w3.org/2000/svg"
   xmlns:sodipodi="http://sodipodi.sourceforge.net/DTD/sodipodi-0.dtd"
   xmlns:inkscape="http://www.inkscape.org/namespaces/inkscape"
   width="96.572914mm"
   height="135.46539mm"
   viewBox="0 0 96.572914 135.46539"
   version="1.1"
   id="svg8"
   inkscape:version="0.92.4 (5da689c313, 2019-01-14)"
   sodipodi:docname="electricity.svg">
  <defs
     id="defs2" />
  <sodipodi:namedview
     id="base"
     pagecolor="#ffffff"
     bordercolor="#666666"
     borderopacity="1.0"
     inkscape:pageopacity="0.0"
     inkscape:pageshadow="2"
     inkscape:zoom="2.709193"
     inkscape:cx="165.82202"
     inkscape:cy="92.675028"
     inkscape:document-units="mm"
     inkscape:current-layer="layer1"
     showgrid="false"
     fit-margin-top="0"
     fit-margin-left="0"
     fit-margin-right="0"
     fit-margin-bottom="0"
     inkscape:window-width="1920"
     inkscape:window-height="1031"
     inkscape:window-x="0"
     inkscape:window-y="25"
     inkscape:window-maximized="1"
     showguides="false" />
  <metadata
     id="metadata5">
    <rdf:RDF>
      <cc:Work
         rdf:about="">
        <dc:format>image/svg+xml</dc:format>
        <dc:type
           rdf:resource="http://purl.org/dc/dcmitype/StillImage" />
        <dc:title />
      </cc:Work>
    </rdf:RDF>
  </metadata>
  <g
     inkscape:label="Capa 1"
     inkscape:groupmode="layer"
     id="layer1"
     transform="translate(-80.487466,-105.12927)">
    <path
       style="fill:#8c8e98;stroke-width:0.26458332;fill-opacity:1"
       d="m 100.848,240.23986 c -1.495134,-0.57607 -2.725584,-1.51587 -3.484224,-2.66121 -0.41498,-0.62651 -1.57702,-3.34934 -2.58231,-6.05075 l -1.8278,-4.91165 -3.58727,-0.0977 c -3.25762,-0.0888 -3.70883,-0.16166 -4.91018,-0.7933 -1.56269,-0.82163 -2.49008,-1.76189 -3.34433,-3.39074 l -0.62442,-1.19062 v -55.29792 -55.29791 l 0.56201,-1.19063 c 0.73986,-1.56737 2.04155,-2.8471 3.67132,-3.6094 l 1.32292,-0.61876 h 42.730214 42.7302 l 1.32292,0.61876 c 1.62977,0.7623 2.93146,2.04203 3.67132,3.6094 l 0.56201,1.19063 v 55.29791 55.29792 l -0.70293,1.32291 c -0.83414,1.56986 -1.77855,2.49742 -3.39811,3.33749 -1.03812,0.53848 -1.65011,0.63004 -4.77789,0.71479 l -3.58727,0.0972 -1.8278,4.91165 c -1.00529,2.70141 -2.16054,5.41399 -2.56722,6.02797 -0.79009,1.19282 -2.15672,2.22242 -3.61732,2.72523 -1.28893,0.44372 -54.57751,0.40429 -55.73384,-0.0412 z m 54.13932,-3.88355 c 0.52013,-0.14448 1.18954,-0.53077 1.48758,-0.85842 0.44576,-0.49004 3.51986,-8.1281 3.51986,-8.74562 0,-0.10146 -14.04938,-0.18447 -31.22083,-0.18447 -17.17146,0 -31.220844,0.083 -31.220844,0.18447 0,0.62165 3.075634,8.25723 3.524944,8.75102 0.30082,0.33061 0.91069,0.70682 1.35528,0.83603 1.14573,0.33299 51.35806,0.34922 52.55401,0.017 z m 16.97477,-15.0191 0.86496,-0.86497 0.068,-54.3763 c 0.0746,-59.60369 0.1844,-55.33375 -1.45091,-56.40533 -0.66921,-0.43852 -3.11384,-0.46958 -42.16241,-0.53568 -32.867694,-0.0556 -41.662334,-8.4e-4 -42.467644,0.26459 -0.63558,0.20948 -1.24273,0.67221 -1.6225,1.23655 l -0.60685,0.9018 0.068,54.44096 0.068,54.44095 0.66145,0.7117 c 0.36381,0.39143 0.89959,0.81076 1.19063,0.93185 0.29104,0.12108 19.428064,0.19736 42.526714,0.1695 l 41.99752,-0.0506 z m -67.66212,-5.85035 c -2.18282,-1.00235 -2.77813,-2.36382 -2.77813,-6.35354 v -2.89939 l -3.791954,-0.0857 c -3.71484,-0.0839 -3.81234,-0.10122 -4.79395,-0.85071 -1.88229,-1.4372 -2.03469,-2.18256 -1.94442,-9.50939 l 0.0793,-6.43456 0.70399,-1.063 c 1.12599,-1.7002 2.1592,-2.05751 6.24132,-2.1584 l 3.505734,-0.0866 v -20.3329 -20.3329 l -3.791954,-0.0857 c -3.71484,-0.0839 -3.81234,-0.10123 -4.79395,-0.85072 -1.88229,-1.43719 -2.03469,-2.18255 -1.94442,-9.50938 l 0.0793,-6.43456 0.70399,-1.06301 c 1.12599,-1.70019 2.1592,-2.0575 6.24132,-2.15839 l 3.505734,-0.0867 v -2.69322 c 0,-3.15754 0.25264,-4.22196 1.25156,-5.27313 1.53444,-1.61469 -0.46648,-1.51765 31.29219,-1.51765 24.56038,0 29.24254,0.0586 29.84491,0.37326 1.07238,0.56023 2.148,1.8036 2.43947,2.81991 0.16499,0.57529 0.25937,17.68476 0.25937,47.01827 0,40.89975 -0.046,46.22402 -0.40696,47.08789 -0.54821,1.31204 -1.11232,1.90208 -2.37116,2.48014 -1.00633,0.46211 -2.46902,0.48599 -29.76563,0.48599 -27.29661,0 -28.7593,-0.0239 -29.76562,-0.48599 z m 58.01064,-49.62485 c 0.0533,-36.43085 -7.9e-4,-45.79973 -0.26458,-45.9673 -0.38269,-0.24298 -55.24189,-0.2999 -55.87234,-0.058 -0.3794,0.14559 -0.41851,4.4323 -0.41851,45.86111 0,25.13528 0.0799,45.78042 0.17758,45.8781 0.0977,0.0977 12.8076,0.14728 28.24427,0.11024 l 28.06669,-0.0673 z m -49.556,38.8897 -0.64943,-0.64943 v -13.07323 c 0,-12.82519 0.0104,-13.08644 0.54837,-13.77035 l 0.54837,-0.69714 h 20.86367 20.86368 l 0.54837,0.69714 c 0.53797,0.68391 0.54837,0.94516 0.54837,13.77035 v 13.07323 l -0.64943,0.64943 -0.64943,0.64943 h -20.66156 -20.66155 z m 39.03807,-13.90265 v -10.31875 h -17.72709 -17.72708 v 10.31875 10.31875 h 17.72708 17.72709 z m -31.10057,5.96515 c -0.40937,-0.40938 -0.64943,-0.95173 -0.64943,-1.46724 0,-0.5155 0.24006,-1.05786 0.64943,-1.46723 l 0.64943,-0.64943 h 12.72405 12.72406 l 0.64943,0.64943 c 0.40937,0.40937 0.64943,0.95173 0.64943,1.46723 0,0.51551 -0.24006,1.05786 -0.64943,1.46724 l -0.64943,0.64943 h -12.72406 -12.72405 z m -0.10106,-9.04354 c -0.30161,-0.38343 -0.54837,-0.96269 -0.54837,-1.28724 0,-0.32455 0.24676,-0.90381 0.54837,-1.28723 l 0.54837,-0.69714 h 12.92617 12.92618 l 0.54837,0.69714 c 0.69574,0.88449 0.69574,1.68997 0,2.57447 l -0.54837,0.69714 h -12.92618 -12.92617 z m 0.26938,-23.59787 c -1.64568,-0.62566 -3.57164,-2.45212 -4.42504,-4.19639 -0.94539,-1.93232 -0.99998,-4.81912 -0.12848,-6.79442 3.92893,-8.90516 10.82842,-23.34126 11.56913,-24.20661 0.49949,-0.58354 1.63924,-1.42631 2.53279,-1.87282 1.38996,-0.69457 1.91814,-0.81183 3.65676,-0.81183 1.73863,0 2.26681,0.11726 3.65677,0.81183 0.89354,0.44651 2.03448,1.29066 2.53543,1.87591 0.59313,0.69293 2.87288,5.31613 6.53617,13.25494 l 5.62536,12.19086 -0.004,2.00667 c -0.006,2.54815 -0.86661,4.50689 -2.70854,6.16124 -2.30888,2.07376 -2.26858,2.06854 -15.77311,2.04495 -10.4666,-0.0183 -12.04732,-0.0744 -13.07288,-0.46433 z m 25.376,-4.15375 c 1.20085,-0.69406 2.19202,-2.56294 2.03423,-3.83565 -0.0635,-0.5122 -2.46425,-6.04861 -5.335,-12.30312 -6.12245,-13.33902 -6.04524,-13.22393 -8.87007,-13.22393 -2.8083,0 -2.73797,-0.10469 -8.83501,13.15302 -2.85842,6.21552 -5.26992,11.66485 -5.35887,12.10963 -0.367,1.83503 1.17383,4.02777 3.17787,4.52237 0.45626,0.1126 5.65159,0.18407 11.54518,0.15882 10.22922,-0.0438 10.75766,-0.0702 11.64167,-0.58114 z m -16.00729,-3.33579 c -0.81664,-0.45654 -1.19063,-1.05218 -1.19063,-1.8963 0,-0.5971 0.42047,-1.20502 1.86098,-2.69062 l 1.86098,-1.91924 -1.78626,-0.14338 c -1.50846,-0.12109 -1.88018,-0.25257 -2.39015,-0.84545 -1.16978,-1.35995 -0.94479,-1.76733 3.34544,-6.05756 3.81885,-3.81885 3.97837,-3.9437 4.82864,-3.77927 1.09973,0.21267 1.80537,1.03713 1.80537,2.10935 0,0.66275 -0.34801,1.17464 -1.77884,2.61652 l -1.77884,1.79258 h 2.02422 c 1.87166,0 2.06555,0.0525 2.57259,0.69714 1.07205,1.36289 0.85731,1.73781 -3.48653,6.08701 -4.05404,4.05905 -4.85411,4.60664 -5.88697,4.02922 z m -28.7073,39.44906 v -5.82922 l -3.108854,0.0745 -3.10886,0.0745 -0.0713,5.75469 -0.0713,5.75469 h 3.18016 3.180164 z m 0,-60.85416 v -5.82923 l -3.108854,0.0745 -3.10886,0.0746 -0.0713,5.75468 -0.0713,5.75469 h 3.18016 3.180164 z"
       id="path960"
       inkscape:connector-curvature="0" />
  </g>
</svg>
