<?xml version="1.0" encoding="UTF-8" standalone="no"?>
<!-- Created with Inkscape (http://www.inkscape.org/) -->

<svg
   xmlns:dc="http://purl.org/dc/elements/1.1/"
   xmlns:cc="http://creativecommons.org/ns#"
   xmlns:rdf="http://www.w3.org/1999/02/22-rdf-syntax-ns#"
   xmlns:svg="http://www.w3.org/2000/svg"
   xmlns="http://www.w3.org/2000/svg"
   xmlns:sodipodi="http://sodipodi.sourceforge.net/DTD/sodipodi-0.dtd"
   xmlns:inkscape="http://www.inkscape.org/namespaces/inkscape"
   width="115.34416mm"
   height="135.49338mm"
   viewBox="0 0 115.34416 135.49337"
   version="1.1"
   id="svg8"
   inkscape:version="0.92.4 (5da689c313, 2019-01-14)"
   sodipodi:docname="frontal-truck.svg">
  <defs
     id="defs2" />
  <sodipodi:namedview
     id="base"
     pagecolor="#ffffff"
     bordercolor="#666666"
     borderopacity="1.0"
     inkscape:pageopacity="0.0"
     inkscape:pageshadow="2"
     inkscape:zoom="0.81883518"
     inkscape:cx="296.24112"
     inkscape:cy="90.991841"
     inkscape:document-units="mm"
     inkscape:current-layer="layer1"
     showgrid="false"
     fit-margin-top="0"
     fit-margin-left="0"
     fit-margin-right="0"
     fit-margin-bottom="0"
     inkscape:window-width="1920"
     inkscape:window-height="1031"
     inkscape:window-x="0"
     inkscape:window-y="25"
     inkscape:window-maximized="1"
     showguides="false" />
  <metadata
     id="metadata5">
    <rdf:RDF>
      <cc:Work
         rdf:about="">
        <dc:format>image/svg+xml</dc:format>
        <dc:type
           rdf:resource="http://purl.org/dc/dcmitype/StillImage" />
        <dc:title></dc:title>
      </cc:Work>
    </rdf:RDF>
  </metadata>
  <g
     inkscape:label="Capa 1"
     inkscape:groupmode="layer"
     id="layer1"
     transform="translate(-68.052203,-104.65594)">
    <path
       style="fill:#000000;stroke-width:0.26458332"
       d="m 81.028716,239.68589 c -1.73451,-0.88445 -1.99278,-1.54671 -2.09002,-5.35927 l -0.0868,-3.40478 -4.76529,-0.0826 -4.76528,-0.0826 -0.63798,-0.74236 c -0.63598,-0.74003 -0.63795,-0.76196 -0.62956,-7.01145 0.006,-4.51053 0.0988,-6.38686 0.33073,-6.68891 0.58828,-0.7662 1.45864,-1.0354 3.34763,-1.0354 h 1.86948 v -11.10261 c 0,-10.46948 0.0303,-11.18354 0.53128,-12.52255 1.16462,-3.11273 3.84109,-5.00878 7.5627,-5.35752 l 1.96018,-0.18369 v -37.96278 c 0,-33.48138 0.0476,-38.0612 0.40352,-38.79652 0.276,-0.57028 1.32053,-1.43987 3.3056,-2.75196 3.32207,-2.19582 4.319,-2.42693 5.26751,-1.22109 0.53665,0.68223 0.54845,0.958 0.55181,12.89844 l 0.003,12.20129 1.12606,-2.79169 c 2.01709,-5.00072 4.64601,-7.65959 9.185824,-9.29048 l 1.71979,-0.61783 h 20.37291 20.37292 l 1.85304,0.60754 c 4.29304,1.40749 7.41678,4.55154 9.35866,9.4195 l 1.06627,2.67296 0.0126,-12.20129 c 0.0123,-11.93337 0.0246,-12.21661 0.56095,-12.89844 0.94851,-1.20584 1.94544,-0.97473 5.26751,1.22109 1.98507,1.31209 3.02959,2.18168 3.3056,2.75196 0.35589,0.73531 0.40352,5.313 0.40352,38.77598 v 37.94223 l 2.19832,0.27236 c 3.76268,0.46618 6.16127,2.20075 7.31786,5.29201 0.50954,1.36187 0.53799,2.02504 0.53799,12.54048 v 11.10258 h 1.86948 c 1.88899,0 2.75935,0.2692 3.34763,1.0354 0.2319,0.30205 0.32467,2.17838 0.33073,6.68891 0.008,6.24949 0.006,6.27142 -0.62957,7.01145 l -0.63798,0.74236 -4.78597,0.0828 -4.78599,0.0829 -5.3e-4,3.09215 c -5.2e-4,3.53416 -0.3309,4.53638 -1.82465,5.53427 -0.87508,0.58459 -1.07602,0.60059 -7.54475,0.60059 -7.62393,0 -8.00414,-0.0888 -9.07828,-2.12001 -0.52376,-0.99066 -0.60179,-1.52727 -0.60179,-4.13931 v -3.0011 H 125.72414 97.942886 v 3.0011 c 0,2.61204 -0.078,3.14865 -0.60191,4.13931 -1.07056,2.02446 -1.47288,2.12007 -8.91897,2.1196 -5.6525,-2.6e-4 -6.60305,-0.0599 -7.39365,-0.46302 z m 60.296704,-29.50063 c 2.20323,-1.12976 2.12629,-0.53844 2.12517,-16.33389 -0.001,-13.39812 -0.0198,-13.92558 -0.52675,-14.75707 -0.28917,-0.47427 -0.9138,-1.0989 -1.38807,-1.38807 -0.83359,-0.50825 -1.3603,-0.52576 -15.81127,-0.52576 -14.45098,0 -14.97769,0.0175 -15.81128,0.52576 -0.47427,0.28917 -1.0989,0.9138 -1.38807,1.38807 -0.50697,0.83149 -0.52579,1.35895 -0.52675,14.75707 -0.001,15.79545 -0.0781,15.20413 2.12517,16.33389 l 1.16097,0.59531 h 14.43996 14.43995 z m -30.39839,-2.74766 c -0.91987,-1.16943 -0.69355,-2.51696 0.52889,-3.14911 0.62826,-0.32488 2.91704,-0.38708 14.24299,-0.38708 9.46577,0 13.69029,0.0892 14.15046,0.2989 0.81173,0.36985 1.30981,1.50394 1.07369,2.44472 -0.38232,1.52328 -0.0359,1.48971 -15.37052,1.48971 H 111.4754 Z m 1.17143,-7.42518 c -1.69034,-0.42355 -2.26518,-2.38562 -1.03696,-3.53937 l 0.68283,-0.64144 h 13.99424 c 13.64957,0 14.0073,0.0131 14.52428,0.53009 0.88679,0.88688 0.96276,2.03797 0.19354,2.93248 l -0.66282,0.77077 -13.58298,0.04 c -7.47063,0.022 -13.82109,-0.0196 -14.11213,-0.0926 z m -0.52917,-8.32279 c -1.29764,-0.70975 -1.56547,-2.05699 -0.64226,-3.23067 l 0.54837,-0.69714 h 14.07714 c 15.33458,0 14.9882,-0.0336 15.37052,1.48972 0.23612,0.94077 -0.26196,2.07486 -1.07369,2.44471 -0.90596,0.41279 -27.52468,0.40655 -28.28008,-0.007 z m -0.54119,-8.54599 c -0.40938,-0.40937 -0.64944,-0.95173 -0.64944,-1.46723 0,-0.51551 0.24006,-1.05787 0.64944,-1.46724 l 0.64943,-0.64943 h 13.98505 c 13.68296,0 13.99749,0.0116 14.5609,0.53649 0.31672,0.29507 0.64652,0.81803 0.73288,1.16213 0.18239,0.72668 -0.46202,2.12995 -1.08851,2.37036 -0.23557,0.0904 -6.67476,0.16435 -14.30931,0.16435 h -13.88101 z m -14.732884,25.91858 c 1.85303,-1.11126 2.34892,-3.69794 1.05681,-5.51254 -0.91105,-1.27946 -1.85631,-1.50036 -6.42024,-1.50036 -4.55959,0 -5.51707,0.22297 -6.40438,1.49142 -1.14116,1.63135 -0.96991,3.62931 0.42569,4.96638 1.08605,1.0405 1.98197,1.19623 6.50786,1.13119 3.40793,-0.049 4.09105,-0.13038 4.83426,-0.57609 z m 69.544074,-0.0178 c 1.29646,-0.96798 1.79113,-1.86384 1.79113,-3.24375 0,-1.5427 -0.81057,-2.83857 -2.11697,-3.38442 -1.22519,-0.51192 -8.76346,-0.51353 -9.98741,-0.002 -1.93548,0.8087 -2.73382,3.04038 -1.78634,4.99353 0.9832,2.0268 1.90348,2.30651 7.35344,2.23498 3.59503,-0.0472 4.09202,-0.10982 4.74615,-0.59821 z m -10.21688,-56.60447 v -9.92188 H 125.7245 95.826576 v 9.92188 9.92187 h 29.897924 29.89791 z"
       id="path992"
       inkscape:connector-curvature="0" />
  </g>
</svg>
