<?xml version="1.0" encoding="UTF-8" standalone="no"?>
<!-- Created with Inkscape (http://www.inkscape.org/) -->

<svg
   xmlns:dc="http://purl.org/dc/elements/1.1/"
   xmlns:cc="http://creativecommons.org/ns#"
   xmlns:rdf="http://www.w3.org/1999/02/22-rdf-syntax-ns#"
   xmlns:svg="http://www.w3.org/2000/svg"
   xmlns="http://www.w3.org/2000/svg"
   xmlns:sodipodi="http://sodipodi.sourceforge.net/DTD/sodipodi-0.dtd"
   xmlns:inkscape="http://www.inkscape.org/namespaces/inkscape"
   width="135.46666mm"
   height="135.46666mm"
   viewBox="0 0 135.46666 135.46665"
   version="1.1"
   id="svg8"
   inkscape:version="0.92.4 (5da689c313, 2019-01-14)"
   sodipodi:docname="oil-pump.svg">
  <defs
     id="defs2" />
  <sodipodi:namedview
     id="base"
     pagecolor="#ffffff"
     bordercolor="#666666"
     borderopacity="1.0"
     inkscape:pageopacity="0.0"
     inkscape:pageshadow="2"
     inkscape:zoom="0.67729824"
     inkscape:cx="187.76459"
     inkscape:cy="17.212646"
     inkscape:document-units="mm"
     inkscape:current-layer="layer1"
     showgrid="false"
     fit-margin-top="0"
     fit-margin-left="0"
     fit-margin-right="0"
     fit-margin-bottom="0"
     inkscape:window-width="1920"
     inkscape:window-height="1031"
     inkscape:window-x="0"
     inkscape:window-y="25"
     inkscape:window-maximized="1"
     showguides="false" />
  <metadata
     id="metadata5">
    <rdf:RDF>
      <cc:Work
         rdf:about="">
        <dc:format>image/svg+xml</dc:format>
        <dc:type
           rdf:resource="http://purl.org/dc/dcmitype/StillImage" />
        <dc:title />
      </cc:Work>
    </rdf:RDF>
  </metadata>
  <g
     inkscape:label="Capa 1"
     inkscape:groupmode="layer"
     id="layer1"
     transform="translate(-58.737301,-101.67567)">
    <path
       style="fill:#000000;stroke-width:0.26458332"
       d="m 60.047757,237.39445 c -0.32758,-0.32758 -0.52917,-0.88194 -0.52917,-1.4552 0,-1.52752 0.69827,-1.98438 3.03293,-1.98438 h 1.9746 l 2.62187,-8.05434 2.62186,-8.05433 -1.24878,-1.29559 c -4.15276,-4.30842 -4.15936,-11.14704 -0.0149,-15.44685 1.63915,-1.70059 3.04678,-1.76483 3.86813,-0.17652 0.50848,0.98329 0.30417,1.63111 -0.97282,3.0846 -3.14541,3.58013 -2.00656,9.25131 2.24556,11.18238 1.51241,0.68684 4.39653,0.67812 5.8302,-0.0176 1.54881,-0.75164 19.55959,-18.84058 20.13365,-20.22102 0.23876,-0.57416 0.433353,-1.78719 0.438823,-2.73551 0.0178,-3.08713 -2.063263,-5.94136 -4.889643,-6.70623 -1.67825,-0.45416 -4.188,-0.16621 -5.5346,0.635 -0.62425,0.37143 -3.69381,3.24302 -6.82124,6.38132 -5.11527,5.13305 -5.77402,5.70599 -6.56046,5.70599 -1.09382,0 -2.1731,-1.00367 -2.1731,-2.02087 0,-0.57962 0.86095,-1.58837 4.36563,-5.11507 l 4.36562,-4.39306 v -29.42508 -29.42508 h -1.68066 c -1.30735,0 -1.87495,-0.13223 -2.55536,-0.59531 -1.6771,-1.14143 -1.97217,-1.81282 -2.07266,-4.71618 -0.10536,-3.0438 0.31349,-2.71379 -3.99754,-3.1496 -4.42649,-0.44747 -4.98911,-1.21255 -3.30232,-4.49067 3.21115,-6.24058 6.90853,-9.67091 12.4446,-11.54579 1.61787,-0.54792 2.77996,-0.73749 5.1444,-0.83921 2.84499,-0.12238 3.49807,-0.0456 9.525,1.1198 3.55882,0.68816 6.736593,1.41938 7.061693,1.62493 1.21506,0.76821 1.06287,2.85254 -0.25437,3.48388 -0.61826,0.29632 -1.51721,0.18059 -7.005303,-0.90191 -9.00177,-1.77556 -11.35947,-1.67839 -15.82102,0.652 -2.09901,1.09637 -4.64999,3.48883 -5.78132,5.42206 -0.41119,0.70265 -0.70534,1.31983 -0.65366,1.37151 0.0517,0.0517 2.35414,0.33637 5.11656,0.63264 2.76242,0.29627 18.9529,2.03261 35.978843,3.85852 17.02593,1.82592 35.33005,3.79407 40.67581,4.37367 5.34576,0.57961 10.08394,1.05383 10.52928,1.05383 h 0.80971 l -0.0782,-1.77987 -0.0782,-1.77987 -5.02709,-0.98777 c -2.76489,-0.54328 -7.46786,-1.46275 -10.45104,-2.04327 -2.98317,-0.58052 -7.92427,-1.5435 -10.9802,-2.13996 -3.05594,-0.59646 -11.33079,-2.20626 -18.38855,-3.57732 -14.0144,-2.72249 -13.75833,-2.63918 -13.75833,-4.47618 0,-0.97292 0.9102,-2.00118 1.77141,-2.00118 0.30068,0 12.79457,2.39215 27.7642,5.31589 14.96963,2.92374 27.99956,5.44185 28.9554,5.59581 l 1.73789,0.27991 6.86107,-5.88102 c 3.77359,-3.23456 7.13671,-5.9908 7.47361,-6.12497 1.49221,-0.59429 3.60049,0.0697 4.2855,1.34961 0.58453,1.09221 2.15272,11.68518 2.95636,19.96998 0.44709,4.60918 0.44958,19.69632 0.004,23.8125 -0.88258,8.15162 -2.65221,15.83849 -3.83737,16.6686 -0.81692,0.5722 -1.86186,0.48865 -2.4802,-0.19829 -0.85704,-0.95212 -0.87906,-1.34032 -0.21335,-3.75997 0.81526,-2.9632 1.59889,-6.91182 2.12865,-10.72597 0.58261,-4.19466 0.80513,-17.01483 0.39672,-22.85638 -0.40056,-5.72918 -2.10168,-19.30971 -2.45689,-19.61401 -0.0401,-0.0344 -2.89238,2.33388 -6.33833,5.2628 l -6.26538,5.3253 -0.0185,31.68385 c -0.0102,17.42612 0.0831,31.68386 0.20721,31.68386 0.12414,0 1.28809,-1.10133 2.58658,-2.4474 2.4323,-2.52145 4.07031,-4.78211 5.79918,-8.00365 1.16602,-2.17271 1.52368,-2.51354 2.63778,-2.51354 1.02314,0 1.97993,0.93947 1.97993,1.94408 0,1.42002 -3.02208,6.45811 -5.98281,9.97391 -1.92881,2.29042 -3.78387,3.95276 -6.4959,5.82104 -2.13018,1.46747 -3.28828,1.68356 -4.19003,0.78181 -0.52292,-0.52292 -0.52917,-0.88195 -0.52917,-30.37365 v -29.84448 l -9.45885,-1.00106 c -5.20237,-0.55058 -9.96487,-1.06706 -10.58334,-1.14773 l -1.12448,-0.14667 v 4.25207 c 0,4.53319 -0.1503,5.30052 -1.2736,6.50192 -1.05662,1.13009 -2.15231,1.48876 -4.54784,1.48876 h -2.13428 l 0.16367,1.25678 c 0.09,0.69122 2.15091,16.61583 4.57976,35.38801 l 4.41607,34.13125 1.7947,0.17806 c 3.48432,0.3457 3.88069,1.07957 3.88069,7.18508 v 4.33742 l 2.3605,0.13459 c 1.78464,0.10176 2.58461,0.2731 3.27913,0.70233 1.55539,0.96129 1.7687,1.77548 1.7687,6.75095 v 4.39178 h 16.93334 c 16.58055,0 16.94435,0.011 17.46249,0.52917 0.73698,0.73697 0.69646,2.13185 -0.0832,2.86429 l -0.61237,0.57529 h -66.5918 c -66.239023,0 -66.594603,-0.003 -67.120963,-0.52917 z m 26.45838,-3.63802 c 2e-5,-0.10914 -1.07826,-3.51258 -2.39618,-7.5632 -1.89231,-5.81599 -2.47861,-7.33315 -2.78798,-7.21443 -1.98652,0.76229 -3.55576,1.0107 -5.58507,0.8841 l -2.19762,-0.13711 -2.24785,6.90108 c -1.23631,3.79559 -2.24785,6.99713 -2.24785,7.11454 0,0.1174 3.92907,0.21346 8.73125,0.21346 4.80219,0 8.73127,-0.0893 8.7313,-0.19844 z m 11.37704,-4.19334 c 0,-4.97547 0.21331,-5.78966 1.7687,-6.75095 0.694513,-0.42923 1.494493,-0.60057 3.279123,-0.70233 l 2.36051,-0.13459 v -4.33742 c 0,-6.06294 0.42583,-6.84235 3.92793,-7.1893 l 1.75482,-0.17384 4.55258,-35.05729 c 2.50392,-19.28151 4.55905,-35.20611 4.56696,-35.38802 0.0103,-0.238 -0.57424,-0.33073 -2.08507,-0.33073 -2.38167,0 -3.26323,-0.25814 -4.34929,-1.2736 -1.38803,-1.2978 -1.48877,-1.87344 -1.48877,-8.50748 0,-4.69866 -0.0757,-6.09395 -0.33073,-6.09406 -0.1819,-8e-5 -4.13345,-0.4168 -8.78121,-0.92604 -4.647773,-0.50924 -8.666133,-0.9259 -8.929693,-0.9259 -0.35804,0 -0.4792,0.20451 -0.4792,0.80888 0,3.31206 -1.84464,5.27369 -4.96093,5.27555 l -1.65365,9.9e-4 v 27.41268 c 0,26.00851 0.0237,27.40225 0.46302,27.20903 3.45007,-1.51747 6.04042,-1.78658 8.83567,-0.91791 6.925673,2.15226 10.006063,10.07138 6.383473,16.41078 -0.37867,0.66266 -4.413313,4.94671 -9.098553,9.66099 l -8.41818,8.47036 2.91152,8.92599 2.91152,8.92599 h 3.42972 3.42973 z m 57.943743,0.55532 v -3.83646 h -26.85521 -26.8552 v 3.83646 3.83646 h 26.8552 26.85521 z m -7.40833,-11.77396 v -3.70416 h -19.44688 -19.44687 v 3.70416 3.70417 h 19.44687 19.44688 z m -17.55805,-11.97239 c 4.11856,-2.21919 7.48892,-4.09443 7.4897,-4.16719 0.002,-0.14991 -20.9287,-8.25265 -21.03074,-8.14163 -0.0363,0.0395 -0.49649,3.46512 -1.02261,7.61247 -0.52613,4.14734 -1.01718,7.80851 -1.09124,8.13593 l -0.13464,0.59531 h 4.15062 4.15063 z m 11.84915,3.175 c -0.37228,-2.68147 -0.63537,-4.24965 -0.72861,-4.34289 -0.0581,-0.0581 -2.2946,1.08803 -4.97,2.54695 l -4.86437,2.65259 5.34118,0.002 5.34118,0.002 -0.11938,-0.8599 z m -2.4209,-18.53564 c -0.53437,-4.17558 -1.03717,-7.59196 -1.11735,-7.59196 -0.0802,0 -4.13141,1.71984 -9.00273,3.82187 -6.67428,2.88003 -8.72813,3.87087 -8.33426,4.02073 0.28748,0.10937 4.74789,1.83393 9.91204,3.83234 5.16414,1.99842 9.41737,3.60548 9.45161,3.57124 0.0342,-0.0343 -0.37495,-3.47865 -0.90931,-7.65422 z m -13.10196,-6.99867 8.53387,-3.67665 -7.72776,-3.74912 c -4.25026,-2.06202 -7.80393,-3.66022 -7.89705,-3.55155 -0.0931,0.10866 -0.5529,3.29319 -1.02174,7.07673 -0.46885,3.78355 -0.91798,7.10554 -0.99808,7.38222 -0.10312,0.3562 -0.0402,0.45808 0.21563,0.34903 0.1987,-0.0847 4.2015,-1.80851 8.89513,-3.83066 z m 11.16759,-7.6709 c -0.0206,-0.95353 -1.75913,-13.82971 -1.88417,-13.95476 -0.0717,-0.0717 -3.07519,1.49285 -6.67439,3.47679 -3.59921,1.98394 -6.44767,3.7021 -6.32991,3.81812 0.26155,0.25772 14.42145,7.11618 14.70003,7.12009 0.10914,0.002 0.19394,-0.20558 0.18844,-0.46024 z m -8.48263,-15.2441 4.07508,-2.24033 -3.41028,-2.20492 c -1.87565,-1.2127 -4.36147,-2.82289 -5.52404,-3.57818 -1.16256,-0.75529 -2.14952,-1.3375 -2.19322,-1.2938 -0.0437,0.0437 -0.43133,2.8048 -0.86138,6.13576 -0.43006,3.33097 -0.85663,6.51796 -0.94793,7.0822 l -0.166,1.0259 2.47635,-1.34315 c 1.36199,-0.73874 4.31013,-2.35131 6.55142,-3.58348 z m 4.76984,-13.68866 c -0.48097,-3.76867 -0.94156,-6.85213 -1.02355,-6.85213 -0.082,0 -2.08353,1.67749 -4.4479,3.72776 l -4.29884,3.72777 5.22519,3.40425 c 2.87385,1.87234 5.26893,3.2783 5.32239,3.12436 0.0535,-0.15393 -0.29632,-3.36334 -0.77729,-7.13201 z m -8.58033,-5.9294 1.85208,-1.70227 -1.76491,-0.007 c -1.71833,-0.007 -1.7685,0.0121 -1.9004,0.7205 -0.37794,2.02972 -0.44081,2.71104 -0.24928,2.70156 0.11573,-0.006 1.04386,-0.77644 2.06251,-1.71268 z m 15.47812,-10.44773 c 0,-2.32833 -0.095,-4.23333 -0.21108,-4.23333 -0.1161,0 -5.72425,-0.59532 -12.46256,-1.32292 -6.73831,-0.72761 -12.29879,-1.32292 -12.35663,-1.32292 -0.0578,0 -0.10515,2.50031 -0.10515,5.55625 v 5.55625 h 12.56771 12.56771 z m -18.15992,2.07179 c -0.58241,-0.282 -1.15466,-1.25948 -1.15466,-1.9723 0,-0.22263 0.34803,-0.75281 0.7734,-1.17818 l 0.77339,-0.77339 h 5.20008 5.20008 l 0.7734,0.77339 c 0.42537,0.42537 0.7734,0.95555 0.7734,1.17818 0,0.7511 -0.58346,1.69239 -1.23225,1.988 -0.82979,0.37808 -10.32131,0.36466 -11.10684,-0.0157 z m -34.014643,-10.6046 c 0.0573,-0.89348 -0.0192,-1.26065 -0.26458,-1.27019 -0.18988,-0.007 -2.16381,-0.22278 -4.38651,-0.47868 -2.22271,-0.2559 -4.09794,-0.40861 -4.16719,-0.33936 -0.18321,0.1832 -0.15432,2.5662 0.0371,3.06518 0.14204,0.37016 0.71323,0.41557 4.43177,0.35237 l 4.26871,-0.0725 z m -14.63499,90.86863 c -1.84855,-0.86537 -3.29795,-3.02156 -3.30355,-4.9145 -0.004,-1.18185 0.71663,-2.74395 1.73525,-3.7641 3.39233,-3.39741 9.10077,-0.88325 9.10971,4.01218 0.002,1.28107 -1.20477,3.40486 -2.40993,4.24003 -1.40026,0.97039 -3.58216,1.15169 -5.13148,0.42639 z m 2.99206,-4.07208 c 0.96131,-0.96131 -0.28384,-2.46854 -1.50112,-1.81707 -1.03592,0.55441 -0.57104,2.13457 0.62799,2.13457 0.3056,0 0.6985,-0.14287 0.87313,-0.3175 z m 5.588,-7.33424 c -1.8098,-1.80981 -2.03334,-2.75322 -0.9169,-3.86966 1.12147,-1.12147 2.09854,-0.89653 3.89081,0.89574 1.32094,1.32093 1.54517,1.6857 1.54517,2.51354 0,1.27019 -0.74862,2.02671 -2.00554,2.02671 -0.8035,0 -1.18485,-0.23765 -2.51354,-1.56633 z m 6.6292,-4.32065 c -2.26,-1.14308 -3.43957,-3.99126 -2.64725,-6.39202 1.40461,-4.256 7.2888,-4.91977 9.66084,-1.0898 2.84638,4.59585 -2.16016,9.93662 -7.01359,7.48182 z m 3.12267,-3.78531 c 0.7302,-0.51145 0.75215,-1.20968 0.0578,-1.83806 -0.43812,-0.3965 -0.64496,-0.42759 -1.19062,-0.17897 -0.80425,0.36644 -0.92864,1.71719 -0.19736,2.14313 0.61153,0.35618 0.64634,0.35288 1.33019,-0.1261 z m 80.972513,-26.3192 c -0.77546,-0.77546 -0.79857,-0.86802 -0.70066,-2.80684 0.0865,-1.71367 0.19103,-2.07763 0.71928,-2.50538 0.86348,-0.69921 2.03404,-0.63737 2.82039,0.14898 0.55627,0.55627 0.64943,0.89607 0.64943,2.3688 0,2.00006 -0.33314,2.89293 -1.23225,3.30259 -0.98975,0.45096 -1.38643,0.36162 -2.25619,-0.50815 z m 2.03323,-40.68057 c -1.26915,-0.26799 -1.98631,-1.71104 -1.39521,-2.80737 0.46729,-0.86668 4.93796,-4.64067 5.73401,-4.84047 1.36193,-0.34182 2.68956,1.14155 2.32427,2.59696 -0.17324,0.69027 -4.54399,4.6009 -5.53261,4.95018 -0.33071,0.11684 -0.83941,0.16216 -1.13046,0.1007 z"
       id="path816"
       inkscape:connector-curvature="0" />
  </g>
</svg>
