<?xml version="1.0" encoding="UTF-8" standalone="no"?>
<!-- Created with Inkscape (http://www.inkscape.org/) -->

<svg
   xmlns:dc="http://purl.org/dc/elements/1.1/"
   xmlns:cc="http://creativecommons.org/ns#"
   xmlns:rdf="http://www.w3.org/1999/02/22-rdf-syntax-ns#"
   xmlns:svg="http://www.w3.org/2000/svg"
   xmlns="http://www.w3.org/2000/svg"
   xmlns:sodipodi="http://sodipodi.sourceforge.net/DTD/sodipodi-0.dtd"
   xmlns:inkscape="http://www.inkscape.org/namespaces/inkscape"
   width="131.54053mm"
   height="131.23364mm"
   viewBox="0 0 131.54053 131.23363"
   version="1.1"
   id="svg8"
   inkscape:version="0.92.4 (5da689c313, 2019-01-14)"
   sodipodi:docname="oil.svg">
  <defs
     id="defs2" />
  <sodipodi:namedview
     id="base"
     pagecolor="#ffffff"
     bordercolor="#666666"
     borderopacity="1.0"
     inkscape:pageopacity="0.0"
     inkscape:pageshadow="2"
     inkscape:zoom="0.81883518"
     inkscape:cx="317.25399"
     inkscape:cy="73.982439"
     inkscape:document-units="mm"
     inkscape:current-layer="layer1"
     showgrid="false"
     fit-margin-top="0"
     fit-margin-left="0"
     fit-margin-right="0"
     fit-margin-bottom="0"
     inkscape:window-width="1920"
     inkscape:window-height="1031"
     inkscape:window-x="0"
     inkscape:window-y="25"
     inkscape:window-maximized="1"
     showguides="false" />
  <metadata
     id="metadata5">
    <rdf:RDF>
      <cc:Work
         rdf:about="">
        <dc:format>image/svg+xml</dc:format>
        <dc:type
           rdf:resource="http://purl.org/dc/dcmitype/StillImage" />
        <dc:title></dc:title>
      </cc:Work>
    </rdf:RDF>
  </metadata>
  <g
     inkscape:label="Capa 1"
     inkscape:groupmode="layer"
     id="layer1"
     transform="translate(-62.492548,-104.41528)">
    <path
       style="fill:#000000;stroke-width:0.26458332"
       d="m 71.267407,235.02925 c -0.80036,-0.33374 -2.15626,-1.1025 -3.01309,-1.70838 -0.85684,-0.60587 -1.98794,-1.17144 -2.51355,-1.25684 -2.07057,-0.33639 -2.43049,-0.4416 -2.81046,-0.82157 -0.59821,-0.59821 -0.49438,-1.84364 0.19389,-2.32573 1.28742,-0.90174 4.38609,-0.13047 7.19047,1.78973 3.27474,2.24227 5.56356,2.3083 8.57307,0.24734 2.88308,-1.97438 3.81039,-2.30088 6.53488,-2.30088 2.68674,0 3.71064,0.351 6.44949,2.21091 3.02283,2.05277 5.50943,2.05277 8.532273,0 2.73884,-1.85991 3.76274,-2.21091 6.44949,-2.21091 2.72448,0 3.65179,0.3265 6.53487,2.30088 2.98024,2.04092 5.30382,1.99117 8.47692,-0.1815 2.2184,-1.51898 3.40938,-1.99907 5.43004,-2.18888 2.34215,-0.22002 4.55045,0.43433 6.94592,2.05815 3.41114,2.31232 5.63764,2.39246 8.67528,0.31223 2.88308,-1.97438 3.81039,-2.30088 6.53488,-2.30088 2.68675,0 3.71065,0.351 6.44949,2.21091 2.03313,1.38067 3.77549,1.81391 5.60065,1.39261 0.73398,-0.16942 2.05321,-0.7961 2.93162,-1.39261 2.73884,-1.85991 3.76274,-2.21091 6.44949,-2.21091 2.72449,0 3.6518,0.3265 6.53488,2.30088 3.0095,2.06096 5.29832,1.99493 8.57306,-0.24734 3.7916,-2.59616 7.77852,-2.91293 7.77852,-0.618 0,0.98258 -0.56857,1.53108 -1.79445,1.73112 -0.54102,0.0883 -1.30202,0.21949 -1.6911,0.29157 -0.38909,0.0721 -1.40112,0.62161 -2.24896,1.22118 -2.33896,1.65404 -4.11562,2.30259 -6.32813,2.30999 -2.48763,0.008 -3.83431,-0.43384 -6.32729,-2.07752 -2.44959,-1.61508 -2.76174,-1.71164 -5.09566,-1.57632 -1.56309,0.0906 -1.97723,0.23603 -3.36962,1.18303 -3.21286,2.18514 -3.67226,2.3448 -6.74688,2.3448 -3.07665,0 -3.50964,-0.15074 -6.71232,-2.33687 -1.41193,-0.96378 -1.8092,-1.10346 -3.39273,-1.19294 -2.34782,-0.13266 -2.657,-0.0371 -5.10711,1.5783 -2.4648,1.6251 -3.83572,2.0838 -6.22787,2.0838 -2.24469,0 -3.55853,-0.46541 -6.19272,-2.19374 l -2.10046,-1.37813 h -2.28137 -2.28136 l -2.14562,1.40864 c -2.49539,1.63827 -4.02005,2.16323 -6.28267,2.16323 -2.17548,0 -3.9701,-0.56887 -5.71152,-1.81047 -2.48726,-1.77338 -3.00827,-1.95709 -5.24624,-1.84984 -1.84658,0.0885 -2.14389,0.1859 -3.60029,1.17968 -3.203193,2.1857 -3.670463,2.34834 -6.746883,2.34834 -3.07461,0 -3.53401,-0.15966 -6.74687,-2.3448 -1.39239,-0.947 -1.80654,-1.0924 -3.36962,-1.18303 -2.33393,-0.13532 -2.64608,-0.0388 -5.09567,1.57632 -1.14218,0.75306 -2.61093,1.52999 -3.26389,1.7265 -1.87487,0.56426 -4.68977,0.4489 -6.39478,-0.26205 z m 1.05833,-10.10622 c -0.80036,-0.22131 -1.99099,-0.75023 -2.64583,-1.17538 -2.89915,-1.88225 -3.50652,-2.17669 -4.87252,-2.36206 -1.72071,-0.23351 -2.27123,-0.6275 -2.27123,-1.62548 0,-1.14161 0.62223,-1.57401 2.26502,-1.57401 1.81208,0 3.47251,0.63358 5.73754,2.18929 1.97348,1.35547 2.95926,1.63678 5.11045,1.45839 1.16919,-0.097 1.78877,-0.35116 3.22888,-1.32476 3.16766,-2.14153 3.31433,-2.19062 6.54457,-2.19062 3.17391,0 3.34493,0.0594 7.20854,2.50598 2.52426,1.59841 4.81118,1.45819 7.784703,-0.47729 2.78943,-1.81568 3.81998,-2.16301 6.37722,-2.14937 2.64853,0.0141 3.56196,0.3216 6.30468,2.12224 1.74381,1.14484 2.38645,1.41903 3.55264,1.51574 2.12712,0.1764 3.11891,-0.10829 5.08736,-1.46031 2.50551,-1.72088 3.87804,-2.18929 6.41506,-2.18929 2.53702,0 3.90956,0.46841 6.41506,2.18929 1.96596,1.3503 2.96073,1.63666 5.07603,1.46125 1.16276,-0.0964 1.82244,-0.38275 3.73232,-1.61993 2.81267,-1.822 3.82472,-2.1194 6.74051,-1.98074 2.38838,0.11358 3.04727,0.37521 6.58772,2.61584 1.30959,0.82879 1.60528,0.90617 3.46294,0.90617 1.85767,0 2.15336,-0.0774 3.46295,-0.90617 3.91637,-2.47853 4.07348,-2.53341 7.25268,-2.53341 3.23024,0 3.37691,0.0491 6.54457,2.19062 1.4401,0.9736 2.05969,1.2278 3.22888,1.32476 2.15119,0.17839 3.13696,-0.10292 5.11045,-1.45839 2.26503,-1.55571 3.92546,-2.18929 5.73754,-2.18929 1.64279,0 2.26502,0.4324 2.26502,1.57401 0,0.99798 -0.55052,1.39197 -2.27124,1.62548 -1.366,0.18537 -1.97353,0.47989 -4.87251,2.36208 -1.65545,1.07482 -4.19095,1.68151 -6.05438,1.44869 -1.93583,-0.24187 -3.24077,-0.77365 -5.25809,-2.14274 -2.14834,-1.45801 -3.21235,-1.79248 -5.14489,-1.61724 -1.30605,0.11843 -1.8988,0.36152 -3.59944,1.47616 -2.99426,1.9625 -3.79398,2.24266 -6.40154,2.24266 -2.60355,0 -3.40876,-0.28115 -6.37732,-2.22677 -3.27448,-2.14612 -5.24847,-2.13239 -8.6067,0.0599 -2.73746,1.78704 -3.77438,2.14021 -6.31493,2.15085 -2.49028,0.0104 -3.83815,-0.42588 -6.00729,-1.94455 -2.01243,-1.40894 -3.10268,-1.83351 -4.70834,-1.83351 -1.59439,0 -2.77418,0.45446 -4.53463,1.74675 -2.04731,1.50287 -3.72145,2.05469 -6.18099,2.03736 -2.52168,-0.0178 -3.72646,-0.42003 -6.07572,-2.0286 -2.21956,-1.51977 -3.26881,-1.85736 -5.22226,-1.68023 -1.30605,0.11843 -1.89881,0.36152 -3.59944,1.47616 -2.994263,1.9625 -3.793983,2.24266 -6.401543,2.24266 -2.60756,0 -3.40728,-0.28016 -6.40153,-2.24266 -1.70064,-1.11464 -2.29339,-1.35773 -3.59945,-1.47616 -1.93253,-0.17524 -2.99654,0.15923 -5.14488,1.61724 -0.91035,0.61782 -2.15329,1.31907 -2.7621,1.55832 -1.65635,0.65091 -4.1923,0.78452 -5.90454,0.31109 z m -0.68591,-10.64223 c -0.74105,-0.26569 -1.94724,-0.91403 -2.68041,-1.44076 -1.8598,-1.33613 -2.65189,-1.70029 -4.1743,-1.91913 -1.56277,-0.22464 -2.24896,-0.75268 -2.24896,-1.73064 0,-2.16452 3.69843,-2.10219 7.04332,0.11869 l 1.42335,0.94505 v -6.18723 -6.18723 l -2.18282,-0.11894 c -3.00719,-0.16387 -4.77555,-1.21451 -5.84798,-3.4745 -0.67356,-1.41941 -0.62457,-9.93088 0.0658,-11.42188 1.00133,-2.16277 2.93071,-3.30729 5.5753,-3.30729 h 1.596 V 146.0663 112.57565 l 3.10885,-2.97307 c 4.98818,-4.77031 5.48931,-5.1873 6.23387,-5.1873 0.50893,0 1.65546,0.88908 4.46833,3.465 2.08106,1.90575 4.05163,3.75786 4.37905,4.11579 l 0.59532,0.6508 v 33.45503 33.45504 h 2.38125 2.38125 v -7.81371 c 0,-8.36668 0.0834,-8.98522 1.40169,-10.39853 1.31999,-1.41511 2.42255,-1.72976 6.469663,-1.84634 l 3.77031,-0.1086 v -10.6947 c 0,-11.65064 0.0176,-11.80442 1.53539,-13.42304 1.3985,-1.4914 2.39578,-1.74035 6.99742,-1.74677 l 4.16719,-0.006 v -8.54008 c 0,-9.41102 0.049,-9.71617 1.56149,-9.71617 1.5965,0 1.61351,0.10131 1.61351,9.61198 v 8.64427 h 6.87916 6.87917 v -4.19213 c 0,-3.72544 0.0539,-4.2411 0.48385,-4.63021 0.6506,-0.58878 1.51857,-0.55213 2.16198,0.0913 0.48365,0.48365 0.52917,0.88195 0.52917,4.63021 v 4.10104 l 4.29948,0.006 c 3.58547,0.005 4.47561,0.0858 5.36008,0.48763 1.33389,0.60598 2.66335,2.10132 3.02453,3.40194 0.17206,0.61956 0.2781,4.98383 0.27902,11.48268 l 0.002,10.48328 3.63802,0.12096 c 3.89978,0.12967 5.05172,0.46466 6.33737,1.84296 1.31832,1.41331 1.4017,2.03185 1.4017,10.39853 l -1.2e-4,7.8137 h 2.38125 2.38125 v -33.44048 c 0,-31.46528 0.0274,-33.47248 0.46303,-33.9823 0.25466,-0.298 2.18391,-2.15666 4.28723,-4.13035 2.9909,-2.80657 3.98235,-3.58853 4.54992,-3.58853 0.56385,0 1.59922,0.80326 4.64245,3.60172 2.15421,1.98094 4.12511,3.8396 4.37977,4.13035 0.43574,0.49749 0.46302,2.49881 0.46302,33.96911 v 33.44048 l 1.78594,0.006 c 2.2026,0.007 3.62797,0.60587 4.78665,2.01054 1.19683,1.45092 1.36177,2.32027 1.36343,7.18642 0.002,4.86869 -0.1848,5.62544 -1.79276,7.27556 -1.16671,1.1973 -2.88617,1.77791 -5.26524,1.77791 h -1.67177 v 6.22041 6.22041 l 1.42335,-0.94505 c 3.38893,-2.25012 7.04332,-2.28785 7.04332,-0.0727 0,0.93301 -0.70767,1.46312 -2.24896,1.68467 -1.53773,0.22104 -2.20593,0.53083 -4.28245,1.98544 -2.05987,1.44294 -3.8876,1.94518 -6.44168,1.77012 -2.18002,-0.14942 -3.25281,-0.57902 -5.86327,-2.34797 -2.94497,-1.99563 -5.43761,-1.88665 -8.75223,0.38262 -4.05124,2.77359 -7.94579,2.75178 -12.10522,-0.0678 -3.16614,-2.14625 -5.3623,-2.30777 -8.13722,-0.59848 -3.63641,2.23995 -4.22355,2.48243 -6.36645,2.62931 -2.59039,0.17755 -4.40564,-0.31803 -6.47528,-1.76782 -2.4182,-1.69396 -3.04925,-1.94181 -4.94391,-1.94181 -1.89465,0 -2.5257,0.24785 -4.9439,1.94181 -2.06965,1.44979 -3.88489,1.94537 -6.47528,1.76782 -2.14384,-0.14694 -2.72837,-0.38849 -6.37497,-2.63444 -2.757,-1.69804 -5.0448,-1.51333 -8.20425,0.66238 -3.995423,2.7514 -7.985313,2.75886 -11.981813,0.0224 -3.33022,-2.28026 -5.85202,-2.39375 -8.80009,-0.39602 -2.75416,1.86632 -3.67824,2.21764 -6.13165,2.33113 -1.71775,0.0795 -2.57407,-0.0106 -3.60104,-0.37882 z m 4.73964,-2.99298 c 0.55606,-0.1544 1.91058,-0.86797 3.01004,-1.58571 2.13339,-1.39269 4.04674,-2.09934 5.68425,-2.09934 h 1.01032 v -4.89479 -4.89479 h -5.82084 -5.82083 v 6.87916 c 0,7.69546 -0.15264,7.17575 1.93706,6.59547 z m 22.51213,-0.42659 c 0.45018,-0.22908 1.354303,-0.8048 2.009143,-1.27937 1.71505,-1.24291 3.05405,-1.73506 5.17252,-1.90118 2.45536,-0.19255 4.22739,0.33306 6.81257,2.02068 3.67299,2.39776 5.50928,2.42125 8.99341,0.11507 2.46245,-1.62992 4.11677,-2.21366 6.27358,-2.21366 2.15681,0 3.81114,0.58374 6.27359,2.21366 3.48413,2.30618 5.32041,2.28269 8.99341,-0.11507 2.58518,-1.68762 4.35721,-2.21323 6.81256,-2.02068 2.11848,0.16612 3.45747,0.65827 5.17252,1.90118 2.06924,1.49959 2.91117,1.82201 4.7625,1.82381 1.86775,0.002 2.1095,-0.0917 4.95298,-1.91592 l 1.91026,-1.22552 0.008,-5.22552 0.008,-5.22552 H 128.15282 89.259077 v 5.22745 5.22744 l 1.25413,0.79183 c 0.68976,0.4355 1.70943,1.07631 2.26592,1.42402 0.55649,0.34771 1.39112,0.72813 1.85473,0.84538 1.11843,0.28285 3.24047,0.0496 4.25774,-0.46808 z m 82.971643,-6.16888 v -6.87916 h -5.82084 -5.82083 v 4.89479 4.89479 h 1.01031 c 1.64014,0 3.55187,0.70731 5.69744,2.10795 1.97583,1.28983 3.15607,1.78954 4.3386,1.83694 l 0.59532,0.0239 z m 8.06428,-10.95064 c 0.84571,-0.84571 0.99124,-1.82402 0.88724,-5.96447 l -0.088,-3.50252 -0.86407,-0.77139 -0.86407,-0.77139 h -60.59855 c -66.383263,0 -61.718963,-0.11545 -62.406613,1.54468 -0.21856,0.52764 -0.29397,2.06289 -0.2357,4.79852 l 0.0857,4.02263 0.74235,0.63792 0.74236,0.63792 H 128.3119 189.29562 Z M 81.372117,178.23402 c -0.87078,-0.7276 -1.68486,-1.31912 -1.80908,-1.31449 -0.12421,0.005 -0.88068,0.59615 -1.68105,1.31449 l -1.45521,1.30608 3.26429,0.008 3.26428,0.008 z m 78.001533,-6.10281 c 0,-7.55045 -0.0713,-8.16367 -1.0354,-8.90388 -0.61094,-0.46906 -59.759923,-0.46906 -60.370853,0 -0.9641,0.74021 -1.03541,1.35343 -1.03541,8.90388 v 7.42573 h 31.220833 31.22083 z m -58.03503,3.76688 c -0.36928,-0.40806 -0.43788,-1.15116 -0.43788,-4.7436 0,-5.65124 -0.21085,-5.45302 5.6495,-5.3108 4.75585,0.11542 4.51237,-0.15146 4.62088,5.06473 0.0788,3.78942 0.0496,4.07769 -0.48222,4.75378 l -0.56615,0.71974 h -4.17312 c -3.70684,0 -4.22205,-0.0541 -4.61101,-0.48385 z m 6.44129,-4.67553 v -1.98437 h -1.85209 -1.85208 v 1.98437 1.98438 h 1.85208 1.85209 z m 8.37538,4.67553 c -0.36929,-0.40806 -0.43788,-1.15116 -0.43788,-4.7436 0,-5.64804 -0.20594,-5.45338 5.61847,-5.3108 2.52317,0.0618 3.6899,0.19315 3.99911,0.45033 0.37384,0.31094 0.43658,0.99898 0.43658,4.78764 0,3.95038 -0.0518,4.47144 -0.48385,4.8624 -0.40647,0.36785 -1.14043,0.43788 -4.5892,0.43788 -3.64118,0 -4.15486,-0.0547 -4.54323,-0.48385 z m 6.44128,-4.67553 v -1.98437 h -1.85208 -1.85208 v 1.98437 1.98438 h 1.85208 1.85208 z m 8.37539,4.67553 c -0.65294,-0.72149 -0.65407,-9.06113 -0.001,-9.60407 0.30922,-0.25718 1.47594,-0.38856 3.99911,-0.45033 5.82988,-0.14272 5.6185,-0.34425 5.6185,5.35677 0,3.83529 -0.0529,4.35356 -0.48386,4.7436 -0.40647,0.36785 -1.14042,0.43788 -4.5892,0.43788 -3.64117,0 -4.15485,-0.0547 -4.54322,-0.48385 z m 6.44128,-4.67553 v -1.98437 h -1.85208 -1.85209 v 1.98437 1.98438 h 1.85209 1.85208 z m 8.20351,4.43964 c -0.53182,-0.67609 -0.56106,-0.96436 -0.48222,-4.75378 0.10851,-5.21619 -0.13498,-4.94931 4.62088,-5.06473 5.8658,-0.14236 5.64949,-0.34746 5.64949,5.35677 0,3.83529 -0.0529,4.35356 -0.48385,4.7436 -0.4067,0.36806 -1.14194,0.43788 -4.611,0.43788 h -4.12715 z m 6.61316,-4.43964 v -1.98437 h -1.85209 -1.85208 v 1.98437 1.98438 h 1.85208 1.85209 z m 26.19374,7.01146 c -0.80036,-0.71834 -1.57427,-1.30607 -1.71979,-1.30607 -0.14552,0 -0.91942,0.58773 -1.71979,1.30607 l -1.45521,1.30608 h 3.175 3.175 z M 75.573527,173.2795 c -0.8404,-0.76045 -1.61729,-1.38553 -1.72643,-1.38906 -0.10914,-0.004 -0.19844,1.25093 -0.19844,2.78768 v 2.79411 l 1.72643,-1.40504 1.72644,-1.40504 z m 9.98138,1.36344 v -2.79732 l -0.65426,0.51463 c -0.35984,0.28306 -1.09857,0.90475 -1.64161,1.38155 l -0.98735,0.86691 1.57546,1.40936 c 0.86651,0.77515 1.60523,1.41225 1.64161,1.41578 0.0364,0.004 0.0661,-1.25237 0.0661,-2.79091 z m 87.895433,-0.57865 c -0.39338,-0.32889 -1.16171,-0.964 -1.70741,-1.41136 l -0.99219,-0.81337 v 2.81633 2.81634 l 1.70741,-1.40498 1.70741,-1.40497 z m 9.20665,0.57563 v -2.80036 l -0.99219,0.80259 c -0.5457,0.44143 -1.3196,1.07651 -1.71977,1.4113 l -0.72757,0.6087 1.65362,1.37578 c 0.90949,0.75668 1.68338,1.38176 1.71976,1.38906 0.0364,0.007 0.0661,-1.24688 0.0661,-2.78707 z m -100.401043,-4.36416 2.49889,-2.13743 -2.44423,-2.09461 c -1.34434,-1.15204 -2.51255,-2.09519 -2.59604,-2.09591 -0.19263,-0.002 -4.85839,3.97706 -4.9243,4.19917 -0.0423,0.14252 4.67817,4.25989 4.88915,4.26451 0.0427,0.001 1.20214,-0.96015 2.57653,-2.13573 z m 96.937273,0.13041 c 1.32299,-1.10387 2.40543,-2.10534 2.40543,-2.2255 0,-0.12015 -1.10571,-1.16424 -2.45715,-2.32019 l -2.45715,-2.10173 -2.37149,2.04828 c -1.30432,1.12656 -2.3715,2.1883 -2.3715,2.35941 0,0.29556 4.30547,4.19304 4.67218,4.22945 0.0958,0.01 1.2567,-0.88586 2.57968,-1.98972 z m -103.320503,-7.61049 1.29802,-1.15725 -1.0763,-0.97237 c -0.59196,-0.5348 -1.38443,-1.21475 -1.76104,-1.51099 l -0.68474,-0.53862 v 2.93893 c 0,3.35843 -0.0933,3.30637 2.22406,1.2403 z m 9.68219,-1.11126 c 0,-3.14887 0.0969,-3.08992 -2.00754,-1.22195 l -1.29122,1.14616 1.58323,1.42322 c 0.87078,0.78277 1.613,1.42785 1.64938,1.43353 0.0364,0.006 0.0661,-1.24576 0.0661,-2.78096 z m 87.090723,-1.3656 c -0.82391,-0.75831 -1.58731,-1.38339 -1.69645,-1.38907 -0.10915,-0.006 -0.19844,1.24681 -0.19844,2.78329 v 2.79361 l 1.69645,-1.40454 1.69645,-1.40454 z m 9.90257,-1.33178 c -0.0704,-0.0704 -0.84238,0.49323 -1.71543,1.25259 l -1.58737,1.38065 1.63965,1.40843 1.63965,1.40842 0.0758,-2.66102 c 0.0417,-1.46355 0.0181,-2.71864 -0.0523,-2.78907 z M 82.071637,157.39809 c 1.2997,-1.12779 2.37898,-2.16959 2.3984,-2.31511 0.0194,-0.14552 -1.05981,-1.17383 -2.39828,-2.28513 l -2.4336,-2.02055 -2.48263,2.14013 -2.48263,2.14013 1.53581,1.33563 c 0.84469,0.73459 1.95369,1.71936 2.46444,2.18836 0.51075,0.46901 0.95266,0.85596 0.98201,0.8599 0.0294,0.004 1.11678,-0.91558 2.41648,-2.04336 z m 65.660353,-8.55021 c 0,-6.40878 -0.10242,-10.7921 -0.259,-11.08467 -0.14245,-0.26617 -0.63647,-0.61553 -1.09781,-0.77636 -1.23606,-0.43089 -35.40488,-0.40863 -36.35371,0.0237 -1.41747,0.64584 -1.44781,0.89959 -1.44781,12.10619 v 10.33189 h 19.57916 19.57917 z m -34.01098,5.18879 c -0.64715,-0.64714 -0.64944,-0.66846 -0.64944,-6.0561 0,-4.92916 0.0447,-5.46184 0.50579,-6.0313 l 0.50579,-0.62462 h 14.06967 14.06967 l 0.50579,0.62462 c 0.46112,0.56946 0.50579,1.10214 0.50579,6.0313 0,5.38764 -0.002,5.40896 -0.64943,6.0561 l -0.64943,0.64944 h -13.78239 -13.78238 z m 26.07348,-6.09744 v -3.30729 h -11.64167 -11.64166 v 3.30729 3.30729 h 11.64166 11.64167 z m 39.75729,9.04788 c 1.1298,-0.9699 2.06347,-1.83786 2.07482,-1.9288 0.0114,-0.0909 -1.08464,-1.09558 -2.43553,-2.23253 -2.37744,-2.00093 -2.47404,-2.05301 -3.01375,-1.62478 -2.79922,2.221 -4.61609,3.87059 -4.44388,4.03474 0.11436,0.10899 1.27609,1.09607 2.58162,2.1935 2.00896,1.68871 2.43585,1.94354 2.77813,1.65833 0.22243,-0.18535 1.3288,-1.13055 2.45859,-2.10046 z m -103.602423,-7.39272 1.11008,-0.9663 -1.54288,-1.33662 c -0.84858,-0.73513 -1.61601,-1.33661 -1.70539,-1.33661 -0.0894,0 -0.16251,1.27091 -0.16251,2.82424 v 2.82425 l 0.59531,-0.52134 c 0.32742,-0.28673 1.09485,-0.95616 1.70539,-1.48762 z m 9.55323,-2.35003 -0.08,-1.35634 -1.52135,1.28107 c -0.83675,0.70459 -1.52136,1.35989 -1.52136,1.45623 0,0.0963 0.68461,0.73961 1.52136,1.42952 l 1.52135,1.25438 0.08,-1.35426 c 0.044,-0.74485 0.044,-1.96462 0,-2.7106 z m 87.364813,2.4198 1.19063,-1.06472 -1.45521,-1.31387 c -0.80036,-0.72263 -1.5445,-1.31766 -1.65364,-1.32229 -0.10915,-0.005 -0.19844,1.18639 -0.19844,2.64672 0,3.0251 -0.0561,2.99716 2.11666,1.05416 z m 9.68004,-3.64247 c -0.15553,-0.15553 -3.06545,2.29237 -3.06545,2.57874 0,0.11002 0.68461,0.76405 1.52135,1.45341 l 1.52136,1.25337 0.0761,-2.57799 c 0.0419,-1.41789 0.0178,-2.63628 -0.0534,-2.70753 z M 82.247617,144.2574 c 1.01864,-0.86746 2.00098,-1.70793 2.18296,-1.8677 0.25411,-0.2231 -0.24831,-0.79475 -2.16539,-2.46372 -1.37295,-1.19526 -2.56767,-2.17321 -2.65493,-2.17321 -0.3011,0 -5.03533,4.25152 -4.9448,4.44063 0.0499,0.10427 1.18101,1.10004 2.51354,2.21281 1.95538,1.6329 2.49935,1.96585 2.81966,1.72581 0.21828,-0.16358 1.23031,-1.00715 2.24896,-1.87462 z m 98.990263,-1.60983 0.64761,-0.52917 -2.51964,-2.18281 c -1.3858,-1.20055 -2.58927,-2.18282 -2.67438,-2.18282 -0.28807,0 -5.13486,4.33366 -4.99887,4.46965 0.0742,0.0742 1.23096,1.04803 2.57053,2.16402 l 2.43557,2.02908 1.94578,-1.61939 c 1.07018,-0.89067 2.23721,-1.85752 2.5934,-2.14856 z m -105.126323,-6.29401 1.00769,-0.87571 -1.58211,-1.37608 c -0.87017,-0.75684 -1.65105,-1.37608 -1.7353,-1.37608 -0.0842,0 -0.15318,1.25826 -0.15318,2.79614 v 2.79615 l 0.7276,-0.54436 c 0.40019,-0.29939 1.18107,-0.93842 1.7353,-1.42006 z m 9.44335,-0.84974 c 0,-1.52797 -0.0893,-2.77349 -0.19844,-2.76781 -0.10914,0.006 -0.88096,0.63075 -1.71515,1.38906 l -1.51672,1.37875 1.63358,1.38906 c 0.89848,0.76398 1.6703,1.38906 1.71516,1.38906 0.0449,0 0.0816,-1.25015 0.0816,-2.77812 z m 87.397283,1.02844 1.23026,-1.08823 -1.56267,-1.35917 c -0.85948,-0.74754 -1.63161,-1.35917 -1.71586,-1.35917 -0.0842,0 -0.15318,1.25691 -0.15318,2.79313 0,3.17183 -0.15696,3.09957 2.20145,1.01344 z m 9.7048,-1.02844 c 0,-1.52797 -0.0893,-2.77349 -0.19844,-2.76781 -0.10914,0.006 -0.88881,0.63116 -1.73259,1.38998 l -1.53416,1.37967 1.6614,1.38814 c 0.91376,0.76348 1.69343,1.38814 1.73259,1.38814 0.0392,0 0.0712,-1.25015 0.0712,-2.77812 z m -100.057483,-4.7625 c 1.02245,-0.87313 1.8378,-1.66535 1.81189,-1.76049 -0.0559,-0.20542 -4.5998,-4.19264 -4.77796,-4.19264 -0.18753,0 -4.78724,3.97124 -4.84317,4.18143 -0.027,0.10131 1.03851,1.09963 2.36769,2.21848 2.77013,2.33179 2.12582,2.3847 5.44155,-0.44678 z m 97.235833,-0.13229 c 0.95136,-0.80037 1.70753,-1.5381 1.68038,-1.63941 -0.0564,-0.21038 -4.6562,-4.18143 -4.84352,-4.18143 -0.17876,0 -4.72233,3.98778 -4.77698,4.19264 -0.0254,0.0951 1.03255,1.09173 2.35095,2.21463 l 2.39709,2.04164 0.73117,-0.58643 c 0.40214,-0.32254 1.50955,-1.24128 2.46091,-2.04164 z m -103.735033,-7.21061 0.99645,-0.86627 -1.57404,-1.38552 c -0.86572,-0.76204 -1.64154,-1.38552 -1.72405,-1.38552 -0.0825,0 -0.15001,1.25826 -0.15001,2.79614 v 2.79614 l 0.7276,-0.54435 c 0.40019,-0.2994 1.17601,-0.93417 1.72405,-1.41062 z m 9.4546,-0.8685 c 0,-3.18363 0.0796,-3.14317 -2.19328,-1.1155 l -1.26725,1.13055 1.65907,1.38619 c 0.91248,0.76241 1.6911,1.3862 1.73026,1.3862 0.0392,0 0.0712,-1.25435 0.0712,-2.78744 z m 87.652453,0.86432 1.00142,-0.87044 -1.39829,-1.19902 c -2.18463,-1.87331 -2.05975,-1.94708 -2.05975,1.21686 v 2.81175 l 0.7276,-0.54435 c 0.40018,-0.2994 1.17824,-0.93605 1.72902,-1.4148 z m 9.44963,-0.85501 c 0,-1.52796 -0.0893,-2.77265 -0.19844,-2.76597 -0.10914,0.007 -0.8846,0.63569 -1.72324,1.3978 l -1.5248,1.38564 1.65204,1.38033 c 0.90862,0.75918 1.68408,1.38033 1.72324,1.38033 0.0392,0 0.0712,-1.25016 0.0712,-2.77813 z M 82.975217,117.4192 c 3.37473,-2.89257 3.37536,-2.91739 0.14842,-5.8783 -1.3372,-1.22696 -2.70686,-2.44818 -3.04368,-2.71382 l -0.61242,-0.48299 -2.90944,2.71045 c -2.3167,2.15825 -2.90944,2.85614 -2.90944,3.42558 0,0.58218 0.54861,1.18846 2.95108,3.26129 2.51178,2.16714 3.01395,2.49724 3.37344,2.21753 0.23229,-0.18074 1.58321,-1.32363 3.00204,-2.53974 z m 97.102083,-0.0144 c 3.35137,-2.89319 3.35139,-2.89391 0.14789,-5.85041 -1.33749,-1.23436 -2.7094,-2.46341 -3.0487,-2.73123 l -0.6169,-0.48694 -2.90443,2.69924 c -3.82599,3.55569 -3.82712,3.39824 0.0483,6.71911 2.50499,2.14651 3.01657,2.48071 3.37344,2.20373 0.23136,-0.17957 1.58152,-1.32864 3.00035,-2.5535 z"
       id="path1024"
       inkscape:connector-curvature="0" />
  </g>
</svg>
