<?xml version="1.0" encoding="UTF-8" standalone="no"?>
<!-- Created with Inkscape (http://www.inkscape.org/) -->

<svg
   xmlns:dc="http://purl.org/dc/elements/1.1/"
   xmlns:cc="http://creativecommons.org/ns#"
   xmlns:rdf="http://www.w3.org/1999/02/22-rdf-syntax-ns#"
   xmlns:svg="http://www.w3.org/2000/svg"
   xmlns="http://www.w3.org/2000/svg"
   xmlns:sodipodi="http://sodipodi.sourceforge.net/DTD/sodipodi-0.dtd"
   xmlns:inkscape="http://www.inkscape.org/namespaces/inkscape"
   width="135.46666mm"
   height="135.46666mm"
   viewBox="0 0 135.46666 135.46665"
   version="1.1"
   id="svg8"
   inkscape:version="0.92.4 (5da689c313, 2019-01-14)"
   sodipodi:docname="plumbing.svg">
  <defs
     id="defs2" />
  <sodipodi:namedview
     id="base"
     pagecolor="#ffffff"
     bordercolor="#666666"
     borderopacity="1.0"
     inkscape:pageopacity="0.0"
     inkscape:pageshadow="2"
     inkscape:zoom="0.81883518"
     inkscape:cx="363.45304"
     inkscape:cy="109.25011"
     inkscape:document-units="mm"
     inkscape:current-layer="layer1"
     showgrid="false"
     fit-margin-top="0"
     fit-margin-left="0"
     fit-margin-right="0"
     fit-margin-bottom="0"
     inkscape:window-width="1920"
     inkscape:window-height="1031"
     inkscape:window-x="0"
     inkscape:window-y="25"
     inkscape:window-maximized="1"
     showguides="false" />
  <metadata
     id="metadata5">
    <rdf:RDF>
      <cc:Work
         rdf:about="">
        <dc:format>image/svg+xml</dc:format>
        <dc:type
           rdf:resource="http://purl.org/dc/dcmitype/StillImage" />
        <dc:title></dc:title>
      </cc:Work>
    </rdf:RDF>
  </metadata>
  <g
     inkscape:label="Capa 1"
     inkscape:groupmode="layer"
     id="layer1"
     transform="translate(-50.269048,-109.5135)">
    <path
       style="fill:#000000;stroke-width:0.26458332"
       d="m 118.65181,244.33073 -0.64943,-0.64943 v -8.23151 c 0,-5.3905 0.0987,-8.41586 0.28588,-8.76567 0.70436,-1.31611 -0.15887,-1.28313 33.58078,-1.28313 33.73966,0 32.87643,-0.033 33.58079,1.28313 0.18721,0.34981 0.28588,3.37517 0.28588,8.76567 v 8.23151 l -0.64944,0.64943 -0.64943,0.64943 h -32.5678 -32.5678 z m 4.04567,-37.38442 c -0.0927,-13.30099 -0.12425,-14.05904 -0.67088,-16.13321 -2.28911,-8.68592 -8.89914,-15.30292 -17.56616,-17.58467 -2.10425,-0.55399 -2.81287,-0.58367 -16.157542,-0.6767 l -13.95677,-0.0973 V 143.36522 114.276 l 14.08906,0.002 c 7.74898,10e-4 15.458282,0.1222 17.131772,0.2688 16.36009,1.43318 31.52326,7.48279 44.48389,17.74764 3.52359,2.7907 10.11295,9.38006 12.90365,12.90365 8.92525,11.26923 14.70965,24.28533 16.94681,38.13389 0.91728,5.67818 1.0673,8.97159 1.06964,23.48177 l 0.002,14.08905 h -29.08896 -29.08922 z m 32.33766,-58.93134 c 1.0432,-0.53945 1.50399,-1.94689 0.97336,-2.97301 -0.539,-1.04231 -5.92789,-6.21257 -9.15458,-8.78317 -6.92982,-5.52076 -15.07504,-9.9541 -23.69217,-12.89536 -7.54271,-2.57453 -16.47706,-4.05057 -24.560452,-4.05762 -3.10738,-0.003 -3.13461,0.003 -3.90261,0.77067 -0.98679,0.9868 -1.03428,2.16477 -0.12396,3.07509 0.58056,0.58056 0.88219,0.65174 2.84427,0.67119 1.20716,0.012 2.49249,0.0615 2.856292,0.11012 0.36381,0.0486 1.97115,0.15562 3.57188,0.23783 3.38506,0.17384 8.40395,0.95533 12.17083,1.89512 12.78676,3.19011 24.54049,9.79529 33.73438,18.95752 3.60251,3.59011 3.8521,3.73145 5.28276,2.99162 z M 87.695728,123.63665 c 0.52305,-0.20072 1.20248,-1.4574 1.20248,-2.22411 0,-0.30947 -0.34803,-0.91069 -0.7734,-1.33606 -0.76996,-0.76996 -0.78767,-0.7734 -3.9891,-0.7734 -3.20142,0 -3.21914,0.003 -3.9891,0.7734 -0.42537,0.42537 -0.7734,1.02659 -0.7734,1.33606 0,0.70417 0.67155,2.03138 1.11892,2.21138 0.4876,0.19618 6.69693,0.20716 7.2036,0.0127 z m -36.77725,52.96075 -0.64943,-0.64943 v -32.56781 -32.5678 l 0.64943,-0.64943 0.64943,-0.64943 h 8.23151 c 5.3905,0 8.41586,0.0987 8.76567,0.28588 1.31611,0.70436 1.28313,-0.15887 1.28313,33.58078 0,33.73966 0.033,32.87643 -1.28313,33.58079 -0.34981,0.18721 -3.37517,0.28588 -8.76567,0.28588 h -8.23151 z"
       id="path1156"
       inkscape:connector-curvature="0" />
  </g>
</svg>
