<?xml version="1.0" encoding="UTF-8" standalone="no"?>
<!-- Created with Inkscape (http://www.inkscape.org/) -->

<svg
   xmlns:dc="http://purl.org/dc/elements/1.1/"
   xmlns:cc="http://creativecommons.org/ns#"
   xmlns:rdf="http://www.w3.org/1999/02/22-rdf-syntax-ns#"
   xmlns:svg="http://www.w3.org/2000/svg"
   xmlns="http://www.w3.org/2000/svg"
   xmlns:sodipodi="http://sodipodi.sourceforge.net/DTD/sodipodi-0.dtd"
   xmlns:inkscape="http://www.inkscape.org/namespaces/inkscape"
   width="135.41147mm"
   height="119.7253mm"
   viewBox="0 0 135.41147 119.72529"
   version="1.1"
   id="svg8"
   inkscape:version="0.92.4 (5da689c313, 2019-01-14)"
   sodipodi:docname="valve.svg">
  <defs
     id="defs2" />
  <sodipodi:namedview
     id="base"
     pagecolor="#ffffff"
     bordercolor="#666666"
     borderopacity="1.0"
     inkscape:pageopacity="0.0"
     inkscape:pageshadow="2"
     inkscape:zoom="0.81883518"
     inkscape:cx="356.79079"
     inkscape:cy="66.419918"
     inkscape:document-units="mm"
     inkscape:current-layer="layer1"
     showgrid="false"
     fit-margin-top="0"
     fit-margin-left="0"
     fit-margin-right="0"
     fit-margin-bottom="0"
     inkscape:window-width="1920"
     inkscape:window-height="1031"
     inkscape:window-x="0"
     inkscape:window-y="25"
     inkscape:window-maximized="1"
     showguides="false" />
  <metadata
     id="metadata5">
    <rdf:RDF>
      <cc:Work
         rdf:about="">
        <dc:format>image/svg+xml</dc:format>
        <dc:type
           rdf:resource="http://purl.org/dc/dcmitype/StillImage" />
        <dc:title></dc:title>
      </cc:Work>
    </rdf:RDF>
  </metadata>
  <g
     inkscape:label="Capa 1"
     inkscape:groupmode="layer"
     id="layer1"
     transform="translate(-52.031769,-113.92271)">
    <path
       style="fill:#000000;stroke-width:0.26458332"
       d="m 115.37457,233.50898 c -12.76061,-1.6231 -24.073445,-9.41637 -29.600055,-20.3911 l -0.96598,-1.91823 h -9.48368 -9.48368 l -0.17528,1.91823 c -0.30972,3.38952 -1.93247,5.68913 -4.7468,6.72674 -2.89405,1.06701 -6.72113,-0.51792 -8.32465,-3.44753 -0.41726,-0.76233 -0.46153,-2.48942 -0.52993,-20.67557 -0.0826,-21.97098 -0.14614,-21.06948 1.62657,-23.08849 2.32849,-2.65201 7.06699,-2.9018 9.65837,-0.50914 1.49106,1.37672 2.41574,3.84494 2.41574,6.44831 v 0.87745 h 9.46988 9.46988 l 0.73198,-1.49248 c 3.30731,-6.74349 10.19229,-13.62846 16.935775,-16.93577 l 1.49248,-0.73199 v -8.69352 c 0,-8.86125 0.0569,-9.42042 1.03541,-10.17168 0.26189,-0.20107 1.39017,-0.32548 2.99949,-0.33073 l 2.57969,-0.008 v -6.74688 -6.74687 H 96.503985 c -11.84228,0 -14.1569,-0.0617 -15.16221,-0.40426 -2.7481,-0.93637 -4.46843,-3.42939 -4.45827,-6.46071 0.004,-1.10577 0.18095,-2.11742 0.48922,-2.79232 0.61129,-1.33828 2.54363,-3.12675 3.89285,-3.60302 1.54379,-0.54495 75.405445,-0.54495 76.949235,0 1.34922,0.47627 3.28156,2.26474 3.89284,3.60302 0.30828,0.6749 0.48552,1.68655 0.48923,2.79232 0.0102,3.03132 -1.71017,5.52434 -4.45827,6.46071 -1.00532,0.34255 -3.31993,0.40426 -15.16222,0.40426 h -13.97578 v 6.74687 6.74688 l 2.57969,0.008 c 1.60932,0.005 2.7376,0.12966 2.99949,0.33073 0.97848,0.75126 1.0354,1.31043 1.0354,10.17168 v 8.69352 l 1.52136,0.74155 c 6.66782,3.25004 13.60632,10.19647 16.9069,16.92621 l 0.73198,1.49248 h 9.46988 9.46988 v -0.87745 c 0,-1.60508 0.5622,-3.94803 1.17931,-4.91471 3.02728,-4.74219 10.18934,-4.11306 12.15813,1.06799 0.39583,1.04165 0.4307,3.05764 0.36324,20.99604 -0.0684,18.18615 -0.11267,19.91324 -0.52993,20.67557 -1.60353,2.92961 -5.4306,4.51454 -8.32466,3.44753 -2.81432,-1.03761 -4.43707,-3.33722 -4.74679,-6.72674 l -0.17529,-1.91823 h -9.48368 -9.48368 l -0.95523,1.89684 c -1.18707,2.35721 -1.95407,3.5507 -3.79702,5.90837 -6.0029,7.67944 -14.85179,12.8295 -24.55751,14.29248 -2.32592,0.3506 -7.95696,0.46992 -9.98751,0.21164 z m 10.02071,-4.99461 c 4.64552,-0.81259 9.02511,-2.53323 12.71188,-4.99423 8.22049,-5.48735 13.33076,-13.35225 14.96784,-23.03612 0.44406,-2.62672 0.37985,-8.28224 -0.12615,-11.11134 -1.96082,-10.96311 -9.61861,-20.71364 -19.58262,-24.9342 -3.9691,-1.68124 -6.38628,-2.30254 -10.55581,-2.7132 -3.54953,-0.3496 -7.90516,-0.0317 -11.23368,0.82002 -8.01525,2.05088 -14.934065,6.84669 -19.586255,13.57632 -5.95181,8.6096 -7.54677,19.87191 -4.23039,29.87167 3.28353,9.90072 11.25308,17.89088 21.132185,21.18683 1.52797,0.50977 3.73062,1.09833 4.89479,1.30791 2.90285,0.52257 8.69613,0.53571 11.60821,0.0264 z m -6.58754,-1.80907 c -0.44009,-0.19174 -0.94611,-0.66893 -1.12448,-1.06042 -0.44463,-0.97587 -0.40798,-3.46181 0.0645,-4.37552 0.49912,-0.96519 1.70613,-1.41074 2.7942,-1.03143 1.05727,0.36857 1.57946,1.44796 1.57946,3.26484 0,1.83955 -0.52171,2.89612 -1.61894,3.27861 -0.4627,0.1613 -0.85327,0.28861 -0.86793,0.28291 -0.0147,-0.006 -0.38674,-0.16724 -0.82683,-0.35899 z m -21.388765,-9.05944 c -1.14269,-1.14269 -0.96704,-2.22418 0.63662,-3.91981 1.46105,-1.54485 2.178355,-1.82377 3.385175,-1.31635 0.94784,0.39854 1.36609,1.09149 1.36609,2.26331 0,0.69759 -0.27691,1.13052 -1.44959,2.26635 -1.730775,1.67638 -2.780155,1.86464 -3.938295,0.7065 z m 40.704145,-0.7065 c -1.23342,-1.19465 -1.44959,-1.54757 -1.44959,-2.36649 0,-1.40645 0.91175,-2.36781 2.24563,-2.36781 0.91113,0 1.20672,0.1768 2.4383,1.4584 1.67675,1.74485 1.86673,2.81962 0.70395,3.9824 -1.15814,1.15814 -2.20753,0.96988 -3.93829,-0.7065 z m -23.27772,0.43571 c -8.15119,-1.74293 -14.901345,-8.31244 -17.083635,-16.62646 -0.73457,-2.79853 -0.78923,-7.61682 -0.11845,-10.44089 1.62045,-6.82226 6.037185,-12.40021 12.168725,-15.36805 13.16429,-6.37188 28.66099,1.0755 32.02498,15.39051 0.66292,2.82097 0.60817,7.65356 -0.11804,10.41843 -2.20819,8.40721 -8.9911,14.94475 -17.27128,16.64649 -2.53747,0.5215 -7.11435,0.51195 -9.6023,-0.02 z m 9.37511,-4.74997 c 4.85854,-1.22842 9.25276,-4.81461 11.47962,-9.3687 2.19945,-4.49805 2.55984,-8.83472 1.11441,-13.41026 -1.79026,-5.66716 -5.94139,-9.75925 -11.93782,-11.76807 -1.52367,-0.51043 -2.3817,-0.6128 -5.13653,-0.6128 -2.75482,0 -3.61285,0.10237 -5.13653,0.6128 -5.99643,2.00882 -10.14755,6.10091 -11.93782,11.76807 -2.693005,8.52481 1.22906,17.61992 9.26915,21.49477 2.08254,1.00366 3.01128,1.27496 6.2177,1.81633 1.04129,0.17581 4.45022,-0.12315 6.06782,-0.53214 z M 89.424525,197.34481 c -1.55351,-0.70378 -1.79452,-2.81323 -0.44288,-3.87643 0.52565,-0.41347 1.07311,-0.52498 2.57747,-0.52498 1.66076,0 2.00143,0.0847 2.61015,0.64882 0.96162,0.89121 0.97562,2.43967 0.0301,3.32796 -0.82658,0.77653 -3.47764,1.01229 -4.77482,0.42463 z m 56.774005,0.17423 c -1.67155,-0.61104 -2.15533,-2.75175 -0.88741,-3.92682 0.60872,-0.56414 0.94939,-0.64882 2.61015,-0.64882 1.51328,0 2.05066,0.11059 2.58688,0.53239 1.40858,1.10799 1.04583,3.35024 -0.6369,3.93684 -0.86655,0.30208 -2.97069,0.36304 -3.67272,0.10641 z M 98.171025,176.98728 c -1.17267,-1.13583 -1.44958,-1.56876 -1.44958,-2.26635 0,-1.1799 0.41932,-1.86522 1.39133,-2.27392 1.14142,-0.47993 2.018335,-0.11395 3.485665,1.45473 1.48227,1.58467 1.64183,2.79026 0.50833,3.84075 -1.18307,1.09643 -2.231785,0.8952 -3.935745,-0.75521 z m 39.470755,1.10487 c -0.63458,-0.3689 -1.1831,-1.69382 -1.03089,-2.49006 0.066,-0.34533 0.75483,-1.22825 1.5307,-1.96203 1.67903,-1.58796 2.86076,-1.79188 3.96792,-0.68473 1.1234,1.1234 0.90599,2.27193 -0.7546,3.9864 -1.17357,1.21164 -1.55359,1.44827 -2.31511,1.44154 -0.50109,-0.004 -1.13019,-0.13543 -1.39802,-0.29112 z m -19.50911,-8.32111 c -0.56859,-0.60523 -0.64143,-0.92334 -0.64143,-2.80103 0,-1.99292 0.0439,-2.15604 0.74235,-2.75681 0.41422,-0.35629 1.08018,-0.63855 1.5066,-0.63855 0.42643,0 1.09239,0.28226 1.5066,0.63855 0.69844,0.60077 0.74236,0.76389 0.74236,2.75681 0,1.87769 -0.0728,2.1958 -0.64143,2.80103 -0.4624,0.49221 -0.91108,0.68278 -1.60753,0.68278 -0.69644,0 -1.14512,-0.19057 -1.60752,-0.68278 z m -57.985805,45.13382 c 0.31178,-0.29047 0.63689,-0.91555 0.72248,-1.38906 0.0856,-0.47352 0.12083,-9.03404 0.0783,-19.02338 -0.0727,-17.09312 -0.10547,-18.19358 -0.55613,-18.69145 -1.11891,-1.23612 -3.14093,-0.72392 -3.61994,0.91698 -0.20838,0.71381 -0.27171,6.36426 -0.21497,19.18083 l 0.0804,18.16891 0.64143,0.68265 c 0.78809,0.83872 2.0604,0.90726 2.86837,0.15452 z m 122.055015,-0.15452 0.64144,-0.68265 0.0804,-18.16891 c 0.0567,-12.81657 -0.007,-18.46702 -0.21497,-19.18083 -0.47901,-1.6409 -2.50104,-2.1531 -3.61994,-0.91698 -0.45067,0.49787 -0.48341,1.59833 -0.55613,18.69145 -0.0425,9.98934 -0.007,18.54986 0.0783,19.02338 0.33583,1.85812 2.3532,2.55169 3.59084,1.23454 z M 82.238825,203.72517 c -1.18996,-5.10121 -1.11559,-12.73553 0.17183,-17.6392 l 0.49195,-1.87382 h -8.56871 -8.5687 v 11.1125 11.1125 h 8.55312 8.55313 z m 91.476365,-8.40052 v -11.1125 h -8.56871 -8.5687 l 0.49195,1.87382 c 1.28742,4.90367 1.36179,12.53799 0.17183,17.6392 l -0.63262,2.71198 h 8.55312 8.55313 z m -61.75293,-37.68883 c 1.03365,-0.22111 3.20654,-0.51848 4.82864,-0.66083 3.23839,-0.28418 7.55163,-0.0185 10.72723,0.66083 1.03364,0.22111 2.20678,0.47206 2.60696,0.55766 l 0.7276,0.15565 v -6.38307 -6.38308 h -11.1125 -11.1125 v 6.38308 6.38307 l 0.72761,-0.15565 c 0.40018,-0.0856 1.57331,-0.33655 2.60696,-0.55766 z m 12.27585,-23.29763 v -6.74687 h -4.49792 -4.49791 v 6.74687 6.74688 h 4.49791 4.49792 z m 32.86408,-11.87008 c 1.14992,-0.87365 1.10064,-2.60954 -0.0979,-3.44905 -0.54742,-0.38343 -4.07918,-0.42357 -37.26408,-0.42357 -33.184895,0 -36.716655,0.0401 -37.264075,0.42357 -1.19857,0.83951 -1.24784,2.5754 -0.0979,3.44905 0.66883,0.50815 74.055155,0.50815 74.723995,0 z"
       id="path1207"
       inkscape:connector-curvature="0" />
  </g>
</svg>
